<svg width="1655" height="995" xmlns="http://www.w3.org/2000/svg" xmlns:xlink="http://www.w3.org/1999/xlink" xml:space="preserve" overflow="hidden"><defs><clipPath id="clip0"><rect x="4358" y="2841" width="1655" height="995"/></clipPath><clipPath id="clip1"><rect x="4361" y="2843" width="1650" height="990"/></clipPath><clipPath id="clip2"><rect x="4604" y="2894" width="1360" height="640"/></clipPath><clipPath id="clip3"><rect x="4604" y="2894" width="1360" height="640"/></clipPath><clipPath id="clip4"><rect x="4604" y="2894" width="1360" height="636"/></clipPath><clipPath id="clip5"><rect x="4604" y="2894" width="1360" height="636"/></clipPath><clipPath id="clip6"><rect x="4604" y="2894" width="1360" height="636"/></clipPath><clipPath id="clip7"><rect x="4604" y="2894" width="1360" height="636"/></clipPath><clipPath id="clip8"><rect x="4604" y="2894" width="1360" height="636"/></clipPath><clipPath id="clip9"><rect x="4604" y="2894" width="1360" height="636"/></clipPath><clipPath id="clip10"><rect x="4604" y="2894" width="1360" height="636"/></clipPath><clipPath id="clip11"><rect x="4604" y="2894" width="1360" height="636"/></clipPath><clipPath id="clip12"><rect x="4361" y="2843" width="1650" height="990"/></clipPath><clipPath id="clip13"><rect x="4361" y="2843" width="1650" height="990"/></clipPath><clipPath id="clip14"><rect x="4361" y="2843" width="1650" height="990"/></clipPath><clipPath id="clip15"><rect x="4361" y="2843" width="1650" height="990"/></clipPath><clipPath id="clip16"><rect x="4361" y="2843" width="1650" height="990"/></clipPath><clipPath id="clip17"><rect x="4361" y="2843" width="1650" height="990"/></clipPath><clipPath id="clip18"><rect x="4361" y="2843" width="1650" height="990"/></clipPath><clipPath id="clip19"><rect x="4361" y="2843" width="1650" height="990"/></clipPath><clipPath id="clip20"><rect x="4361" y="2843" width="1650" height="990"/></clipPath><clipPath id="clip21"><rect x="4361" y="2843" width="1650" height="990"/></clipPath><clipPath id="clip22"><rect x="4361" y="2843" width="1650" height="990"/></clipPath><clipPath id="clip23"><rect x="4361" y="2843" width="1650" height="990"/></clipPath><clipPath id="clip24"><rect x="4361" y="2843" width="1650" height="990"/></clipPath><clipPath id="clip25"><rect x="4361" y="2843" width="1650" height="990"/></clipPath><clipPath id="clip26"><rect x="4361" y="2843" width="1650" height="990"/></clipPath><clipPath id="clip27"><rect x="4361" y="2843" width="1650" height="990"/></clipPath><clipPath id="clip28"><rect x="4361" y="2843" width="1650" height="990"/></clipPath><clipPath id="clip29"><rect x="4361" y="2843" width="1650" height="990"/></clipPath><clipPath id="clip30"><rect x="4361" y="2843" width="1650" height="990"/></clipPath><clipPath id="clip31"><rect x="4361" y="2843" width="1650" height="990"/></clipPath><clipPath id="clip32"><rect x="4361" y="2843" width="1650" height="990"/></clipPath></defs><g clip-path="url(#clip0)" transform="translate(-4358 -2841)"><rect x="4361" y="2844" width="1650" height="990" fill="#FFFFFF" fill-opacity="1"/><g clip-path="url(#clip1)"><path d="M4604.5 3439.61 5960.5 3439.61M4604.5 3348.61 5960.5 3348.61M4604.5 3257.61 5960.5 3257.61M4604.5 3167.6 5960.5 3167.6M4604.5 3076.6 5960.5 3076.6M4604.5 2985.6 5960.5 2985.6M4604.5 2894.5 5960.5 2894.5" stroke="#D9D9D9" stroke-width="3.4375" stroke-linecap="butt" stroke-linejoin="round" stroke-miterlimit="10" stroke-opacity="1" fill="none" fill-rule="nonzero"/></g><g clip-path="url(#clip2)"><path d="M4647.15 3381.11 4760.16 3381.11 4760.16 3531 4647.15 3531ZM4986.16 3206.11 5099.17 3206.11 5099.17 3531 4986.16 3531ZM5325.17 3132.1 5438.18 3132.1 5438.18 3531 5325.17 3531ZM5664.19 3024.1 5777.19 3024.1 5777.19 3531 5664.19 3531Z" fill="#FFC000" fill-rule="nonzero" fill-opacity="1"/></g><g clip-path="url(#clip3)"><path d="M4788.16 3444.11 4901.16 3444.11 4901.16 3531 4788.16 3531ZM5127.17 3233.11 5240.17 3233.11 5240.17 3531 5127.17 3531ZM5466.18 3209.11 5579.18 3209.11 5579.18 3531 5466.18 3531ZM5805.19 3296.11 5918.19 3296.11 5918.19 3531 5805.19 3531Z" fill="#70AD47" fill-rule="nonzero" fill-opacity="1"/></g><g clip-path="url(#clip4)"><path d="M4703.65 3380.61 4703.65 3456.5M4703.65 3380.61 4703.65 3305.5M4693.5 3456.5 4713.5 3456.5M4693.5 3305.5 4713.5 3305.5" stroke="#595959" stroke-width="3.4375" stroke-linecap="butt" stroke-linejoin="round" stroke-miterlimit="10" stroke-opacity="1" fill="none" fill-rule="nonzero"/></g><g clip-path="url(#clip5)"><path d="M5042.67 3205.61 5042.67 3280.5M5042.67 3205.61 5042.67 3130.5M5032.5 3280.5 5052.5 3280.5M5032.5 3130.5 5052.5 3130.5" stroke="#595959" stroke-width="3.4375" stroke-linecap="butt" stroke-linejoin="round" stroke-miterlimit="10" stroke-opacity="1" fill="none" fill-rule="nonzero"/></g><g clip-path="url(#clip6)"><path d="M5381.68 3132.6 5381.68 3207.5M5381.68 3132.6 5381.68 3057.5M5371.5 3207.5 5391.5 3207.5M5371.5 3057.5 5391.5 3057.5" stroke="#595959" stroke-width="3.4375" stroke-linecap="butt" stroke-linejoin="round" stroke-miterlimit="10" stroke-opacity="1" fill="none" fill-rule="nonzero"/></g><g clip-path="url(#clip7)"><path d="M5720.69 3023.6 5720.69 3099.5M5720.69 3023.6 5720.69 2948.5M5710.5 3099.5 5730.5 3099.5M5710.5 2948.5 5730.5 2948.5" stroke="#595959" stroke-width="3.4375" stroke-linecap="butt" stroke-linejoin="round" stroke-miterlimit="10" stroke-opacity="1" fill="none" fill-rule="nonzero"/></g><g clip-path="url(#clip8)"><path d="M4844.66 3443.61 4844.66 3496.5M4844.66 3443.61 4844.66 3391.5M4834.5 3496.5 4855.5 3496.5M4834.5 3391.5 4855.5 3391.5" stroke="#595959" stroke-width="3.4375" stroke-linecap="butt" stroke-linejoin="round" stroke-miterlimit="10" stroke-opacity="1" fill="none" fill-rule="nonzero"/></g><g clip-path="url(#clip9)"><path d="M5183.67 3232.61 5183.67 3285.5M5183.67 3232.61 5183.67 3180.5M5173.5 3285.5 5194.5 3285.5M5173.5 3180.5 5194.5 3180.5" stroke="#595959" stroke-width="3.4375" stroke-linecap="butt" stroke-linejoin="round" stroke-miterlimit="10" stroke-opacity="1" fill="none" fill-rule="nonzero"/></g><g clip-path="url(#clip10)"><path d="M5522.68 3209.61 5522.68 3262.5M5522.68 3209.61 5522.68 3156.5M5512.5 3262.5 5533.5 3262.5M5512.5 3156.5 5533.5 3156.5" stroke="#595959" stroke-width="3.4375" stroke-linecap="butt" stroke-linejoin="round" stroke-miterlimit="10" stroke-opacity="1" fill="none" fill-rule="nonzero"/></g><g clip-path="url(#clip11)"><path d="M5861.69 3295.61 5861.69 3348.5M5861.69 3295.61 5861.69 3243.5M5851.5 3348.5 5872.5 3348.5M5851.5 3243.5 5872.5 3243.5" stroke="#595959" stroke-width="3.4375" stroke-linecap="butt" stroke-linejoin="round" stroke-miterlimit="10" stroke-opacity="1" fill="none" fill-rule="nonzero"/></g><g clip-path="url(#clip12)"><path d="M4604.5 3530.5 5960.5 3530.5" stroke="#D9D9D9" stroke-width="3.4375" stroke-linecap="butt" stroke-linejoin="round" stroke-miterlimit="10" stroke-opacity="1" fill="none" fill-rule="evenodd"/></g><g clip-path="url(#clip13)"><text fill="#595959" fill-opacity="1" font-family="Calibri,Calibri_MSFontService,sans-serif" font-style="normal" font-variant="normal" font-weight="400" font-stretch="normal" font-size="41" text-anchor="start" direction="ltr" writing-mode="lr-tb" unicode-bidi="normal" text-decoration="none" transform="matrix(1 0 0 1 4545.54 3541)">0</text></g><g clip-path="url(#clip14)"><text fill="#595959" fill-opacity="1" font-family="Calibri,Calibri_MSFontService,sans-serif" font-style="normal" font-variant="normal" font-weight="400" font-stretch="normal" font-size="41" text-anchor="start" direction="ltr" writing-mode="lr-tb" unicode-bidi="normal" text-decoration="none" transform="matrix(1 0 0 1 4482.84 3450)">1000</text></g><g clip-path="url(#clip15)"><text fill="#595959" fill-opacity="1" font-family="Calibri,Calibri_MSFontService,sans-serif" font-style="normal" font-variant="normal" font-weight="400" font-stretch="normal" font-size="41" text-anchor="start" direction="ltr" writing-mode="lr-tb" unicode-bidi="normal" text-decoration="none" transform="matrix(1 0 0 1 4482.84 3359)">2000</text></g><g clip-path="url(#clip16)"><text fill="#595959" fill-opacity="1" font-family="Calibri,Calibri_MSFontService,sans-serif" font-style="normal" font-variant="normal" font-weight="400" font-stretch="normal" font-size="41" text-anchor="start" direction="ltr" writing-mode="lr-tb" unicode-bidi="normal" text-decoration="none" transform="matrix(1 0 0 1 4482.84 3268)">3000</text></g><g clip-path="url(#clip17)"><text fill="#595959" fill-opacity="1" font-family="Calibri,Calibri_MSFontService,sans-serif" font-style="normal" font-variant="normal" font-weight="400" font-stretch="normal" font-size="41" text-anchor="start" direction="ltr" writing-mode="lr-tb" unicode-bidi="normal" text-decoration="none" transform="matrix(1 0 0 1 4482.84 3177)">4000</text></g><g clip-path="url(#clip18)"><text fill="#595959" fill-opacity="1" font-family="Calibri,Calibri_MSFontService,sans-serif" font-style="normal" font-variant="normal" font-weight="400" font-stretch="normal" font-size="41" text-anchor="start" direction="ltr" writing-mode="lr-tb" unicode-bidi="normal" text-decoration="none" transform="matrix(1 0 0 1 4482.84 3086)">5000</text></g><g clip-path="url(#clip19)"><text fill="#595959" fill-opacity="1" font-family="Calibri,Calibri_MSFontService,sans-serif" font-style="normal" font-variant="normal" font-weight="400" font-stretch="normal" font-size="41" text-anchor="start" direction="ltr" writing-mode="lr-tb" unicode-bidi="normal" text-decoration="none" transform="matrix(1 0 0 1 4482.84 2995)">6000</text></g><g clip-path="url(#clip20)"><text fill="#595959" fill-opacity="1" font-family="Calibri,Calibri_MSFontService,sans-serif" font-style="normal" font-variant="normal" font-weight="400" font-stretch="normal" font-size="41" text-anchor="start" direction="ltr" writing-mode="lr-tb" unicode-bidi="normal" text-decoration="none" transform="matrix(1 0 0 1 4482.84 2904)">7000</text></g><g clip-path="url(#clip21)"><text fill="#595959" fill-opacity="1" font-family="Calibri,Calibri_MSFontService,sans-serif" font-style="normal" font-variant="normal" font-weight="400" font-stretch="normal" font-size="41" text-anchor="start" direction="ltr" writing-mode="lr-tb" unicode-bidi="normal" text-decoration="none" transform="matrix(1 0 0 1 4763.75 3596)">1</text></g><g clip-path="url(#clip22)"><text fill="#595959" fill-opacity="1" font-family="Calibri,Calibri_MSFontService,sans-serif" font-style="normal" font-variant="normal" font-weight="400" font-stretch="normal" font-size="41" text-anchor="start" direction="ltr" writing-mode="lr-tb" unicode-bidi="normal" text-decoration="none" transform="matrix(1 0 0 1 5102.73 3596)">2</text></g><g clip-path="url(#clip23)"><text fill="#595959" fill-opacity="1" font-family="Calibri,Calibri_MSFontService,sans-serif" font-style="normal" font-variant="normal" font-weight="400" font-stretch="normal" font-size="41" text-anchor="start" direction="ltr" writing-mode="lr-tb" unicode-bidi="normal" text-decoration="none" transform="matrix(1 0 0 1 5441.71 3596)">4</text></g><g clip-path="url(#clip24)"><text fill="#595959" fill-opacity="1" font-family="Calibri,Calibri_MSFontService,sans-serif" font-style="normal" font-variant="normal" font-weight="400" font-stretch="normal" font-size="41" text-anchor="start" direction="ltr" writing-mode="lr-tb" unicode-bidi="normal" text-decoration="none" transform="matrix(1 0 0 1 5780.69 3596)">8</text></g><g clip-path="url(#clip25)"><text fill="#595959" fill-opacity="1" font-family="Times New Roman,Times New Roman_MSFontService,sans-serif" font-style="normal" font-variant="normal" font-weight="400" font-stretch="normal" font-size="46" text-anchor="start" direction="ltr" writing-mode="lr-tb" unicode-bidi="normal" text-decoration="none" transform="matrix(6.12323e-17 -1 1 6.12323e-17 4459.33 3329)">Latancy (</text></g><g clip-path="url(#clip26)"><text fill="#595959" fill-opacity="1" font-family="Times New Roman,Times New Roman_MSFontService,sans-serif" font-style="normal" font-variant="normal" font-weight="400" font-stretch="normal" font-size="37" text-anchor="start" direction="ltr" writing-mode="lr-tb" unicode-bidi="normal" text-decoration="none" transform="matrix(6.12323e-17 -1 1 6.12323e-17 4459.33 3154)">ms</text></g><g clip-path="url(#clip27)"><text fill="#595959" fill-opacity="1" font-family="Times New Roman,Times New Roman_MSFontService,sans-serif" font-style="normal" font-variant="normal" font-weight="400" font-stretch="normal" font-size="46" text-anchor="start" direction="ltr" writing-mode="lr-tb" unicode-bidi="normal" text-decoration="none" transform="matrix(6.12323e-17 -1 1 6.12323e-17 4459.33 3112)">)</text></g><g clip-path="url(#clip28)"><text fill="#595959" fill-opacity="1" font-family="Times New Roman,Times New Roman_MSFontService,sans-serif" font-style="normal" font-variant="normal" font-weight="400" font-stretch="normal" font-size="46" text-anchor="start" direction="ltr" writing-mode="lr-tb" unicode-bidi="normal" text-decoration="none" transform="matrix(1 0 0 1 5119.11 3662)">Workloads (hour)</text></g><g clip-path="url(#clip29)"><rect x="5076" y="3756" width="22.9995" height="22.9998" fill="#FFC000" fill-opacity="1"/></g><g clip-path="url(#clip30)"><text fill="#595959" fill-opacity="1" font-family="Calibri,Calibri_MSFontService,sans-serif" font-style="normal" font-variant="normal" font-weight="400" font-stretch="normal" font-size="41" text-anchor="start" direction="ltr" writing-mode="lr-tb" unicode-bidi="normal" text-decoration="none" transform="matrix(1 0 0 1 5108.73 3778)">k8s</text></g><g clip-path="url(#clip31)"><rect x="5193" y="3756" width="23" height="22.9998" fill="#70AD47" fill-opacity="1"/></g><g clip-path="url(#clip32)"><text fill="#595959" fill-opacity="1" font-family="Calibri,Calibri_MSFontService,sans-serif" font-style="normal" font-variant="normal" font-weight="400" font-stretch="normal" font-size="41" text-anchor="start" direction="ltr" writing-mode="lr-tb" unicode-bidi="normal" text-decoration="none" transform="matrix(1 0 0 1 5225.36 3778)">LEAD</text></g><rect x="4361.5" y="2844.5" width="1650" height="990" stroke="#D9D9D9" stroke-width="3.4375" stroke-linecap="butt" stroke-linejoin="round" stroke-miterlimit="10" stroke-opacity="1" fill="none"/></g></svg>