<svg width="1829" height="999" xmlns="http://www.w3.org/2000/svg" xmlns:xlink="http://www.w3.org/1999/xlink" xml:space="preserve" overflow="hidden"><defs><clipPath id="clip0"><rect x="4143" y="1173" width="1829" height="999"/></clipPath><clipPath id="clip1"><rect x="4145" y="1175" width="1824" height="990"/></clipPath><clipPath id="clip2"><rect x="4145" y="1175" width="1824" height="990"/></clipPath><clipPath id="clip3"><rect x="4347" y="1226" width="1575" height="634"/></clipPath><clipPath id="clip4"><rect x="4347" y="1226" width="1575" height="634"/></clipPath><clipPath id="clip5"><rect x="4145" y="1175" width="1824" height="990"/></clipPath><clipPath id="clip6"><rect x="4145" y="1175" width="1824" height="990"/></clipPath><clipPath id="clip7"><rect x="4145" y="1175" width="1824" height="990"/></clipPath><clipPath id="clip8"><rect x="4145" y="1175" width="1824" height="990"/></clipPath><clipPath id="clip9"><rect x="4145" y="1175" width="1824" height="990"/></clipPath><clipPath id="clip10"><rect x="4145" y="1175" width="1824" height="990"/></clipPath><clipPath id="clip11"><rect x="4145" y="1175" width="1824" height="990"/></clipPath><clipPath id="clip12"><rect x="4145" y="1175" width="1824" height="990"/></clipPath><clipPath id="clip13"><rect x="4145" y="1175" width="1824" height="990"/></clipPath><clipPath id="clip14"><rect x="4145" y="1175" width="1824" height="990"/></clipPath><clipPath id="clip15"><rect x="4145" y="1175" width="1824" height="990"/></clipPath><clipPath id="clip16"><rect x="4145" y="1175" width="1824" height="990"/></clipPath><clipPath id="clip17"><rect x="4145" y="1175" width="1824" height="990"/></clipPath><clipPath id="clip18"><rect x="4145" y="1175" width="1824" height="990"/></clipPath><clipPath id="clip19"><rect x="4145" y="1175" width="1824" height="990"/></clipPath><clipPath id="clip20"><rect x="4145" y="1175" width="1824" height="990"/></clipPath><clipPath id="clip21"><rect x="4145" y="1175" width="1824" height="990"/></clipPath><clipPath id="clip22"><rect x="4145" y="1175" width="1824" height="990"/></clipPath><clipPath id="clip23"><rect x="4145" y="1175" width="1824" height="990"/></clipPath><clipPath id="clip24"><rect x="4145" y="1175" width="1824" height="990"/></clipPath><clipPath id="clip25"><rect x="4145" y="1175" width="1824" height="990"/></clipPath><clipPath id="clip26"><rect x="4145" y="1175" width="1824" height="990"/></clipPath><clipPath id="clip27"><rect x="4145" y="1175" width="1824" height="990"/></clipPath></defs><g clip-path="url(#clip0)" transform="translate(-4143 -1173)"><rect x="4146" y="1176" width="1824" height="990" fill="#FFFFFF" fill-opacity="1"/><g clip-path="url(#clip1)"><path d="M4347.5 1752.56 5919.5 1752.56M4347.5 1646.55 5919.5 1646.55M4347.5 1541.55 5919.5 1541.55M4347.5 1436.55 5919.5 1436.55M4347.5 1331.54 5919.5 1331.54M4347.5 1226.5 5919.5 1226.5" stroke="#D9D9D9" stroke-width="3.4375" stroke-linecap="butt" stroke-linejoin="round" stroke-miterlimit="10" stroke-opacity="1" fill="none" fill-rule="nonzero"/></g><g clip-path="url(#clip2)"><path d="M4347.5 1857.5 5919.5 1857.5" stroke="#D9D9D9" stroke-width="3.4375" stroke-linecap="butt" stroke-linejoin="round" stroke-miterlimit="10" stroke-opacity="1" fill="none" fill-rule="evenodd"/></g><g clip-path="url(#clip3)"><path d="M4446 1568C4511.48 1520.65 4576.95 1463.72 4642.43 1425.94 4707.9 1388.16 4773.38 1363.83 4838.86 1341.33 4904.33 1318.83 4969.81 1300.56 5035.29 1290.93 5100.76 1281.3 5166.24 1285.16 5231.71 1283.56 5297.19 1281.96 5362.67 1281.91 5428.14 1281.35 5493.62 1280.79 5559.09 1280.39 5624.57 1280.19 5690.05 1280 5755.52 1280.19 5821 1280.19" stroke="#FFC000" stroke-width="10.3125" stroke-linecap="round" stroke-linejoin="round" stroke-miterlimit="10" stroke-opacity="1" fill="none" fill-rule="nonzero"/></g><g clip-path="url(#clip4)"><path d="M4446 1690C4511.48 1671.41 4576.95 1645.3 4642.43 1634.23 4707.9 1623.16 4773.38 1627.11 4838.86 1623.58 4904.33 1620.05 4969.81 1615.78 5035.29 1613.04 5100.76 1610.29 5166.24 1609.68 5231.71 1607.13 5297.19 1604.58 5362.67 1600.26 5428.14 1597.75 5493.62 1595.23 5559.09 1593.11 5624.57 1592.05 5690.05 1591 5755.52 1591.63 5821 1591.42" stroke="#70AD47" stroke-width="10.3125" stroke-linecap="round" stroke-linejoin="round" stroke-miterlimit="10" stroke-opacity="1" fill="none" fill-rule="nonzero"/></g><g clip-path="url(#clip5)"><text fill="#595959" fill-opacity="1" font-family="Calibri,Calibri_MSFontService,sans-serif" font-style="normal" font-variant="normal" font-weight="400" font-stretch="normal" font-size="41" text-anchor="start" direction="ltr" writing-mode="lr-tb" unicode-bidi="normal" text-decoration="none" transform="matrix(1 0 0 1 4288.3 1867)">0</text></g><g clip-path="url(#clip6)"><text fill="#595959" fill-opacity="1" font-family="Calibri,Calibri_MSFontService,sans-serif" font-style="normal" font-variant="normal" font-weight="400" font-stretch="normal" font-size="41" text-anchor="start" direction="ltr" writing-mode="lr-tb" unicode-bidi="normal" text-decoration="none" transform="matrix(1 0 0 1 4267.4 1762)">10</text></g><g clip-path="url(#clip7)"><text fill="#595959" fill-opacity="1" font-family="Calibri,Calibri_MSFontService,sans-serif" font-style="normal" font-variant="normal" font-weight="400" font-stretch="normal" font-size="41" text-anchor="start" direction="ltr" writing-mode="lr-tb" unicode-bidi="normal" text-decoration="none" transform="matrix(1 0 0 1 4267.4 1657)">20</text></g><g clip-path="url(#clip8)"><text fill="#595959" fill-opacity="1" font-family="Calibri,Calibri_MSFontService,sans-serif" font-style="normal" font-variant="normal" font-weight="400" font-stretch="normal" font-size="41" text-anchor="start" direction="ltr" writing-mode="lr-tb" unicode-bidi="normal" text-decoration="none" transform="matrix(1 0 0 1 4267.4 1552)">30</text></g><g clip-path="url(#clip9)"><text fill="#595959" fill-opacity="1" font-family="Calibri,Calibri_MSFontService,sans-serif" font-style="normal" font-variant="normal" font-weight="400" font-stretch="normal" font-size="41" text-anchor="start" direction="ltr" writing-mode="lr-tb" unicode-bidi="normal" text-decoration="none" transform="matrix(1 0 0 1 4267.4 1447)">40</text></g><g clip-path="url(#clip10)"><text fill="#595959" fill-opacity="1" font-family="Calibri,Calibri_MSFontService,sans-serif" font-style="normal" font-variant="normal" font-weight="400" font-stretch="normal" font-size="41" text-anchor="start" direction="ltr" writing-mode="lr-tb" unicode-bidi="normal" text-decoration="none" transform="matrix(1 0 0 1 4267.4 1341)">50</text></g><g clip-path="url(#clip11)"><text fill="#595959" fill-opacity="1" font-family="Calibri,Calibri_MSFontService,sans-serif" font-style="normal" font-variant="normal" font-weight="400" font-stretch="normal" font-size="41" text-anchor="start" direction="ltr" writing-mode="lr-tb" unicode-bidi="normal" text-decoration="none" transform="matrix(1 0 0 1 4267.4 1236)">60</text></g><g clip-path="url(#clip12)"><text fill="#595959" fill-opacity="1" font-family="Calibri,Calibri_MSFontService,sans-serif" font-style="normal" font-variant="normal" font-weight="400" font-stretch="normal" font-size="41" text-anchor="start" direction="ltr" writing-mode="lr-tb" unicode-bidi="normal" text-decoration="none" transform="matrix(1 0 0 1 4410.07 1922)">50%</text></g><g clip-path="url(#clip13)"><text fill="#595959" fill-opacity="1" font-family="Calibri,Calibri_MSFontService,sans-serif" font-style="normal" font-variant="normal" font-weight="400" font-stretch="normal" font-size="41" text-anchor="start" direction="ltr" writing-mode="lr-tb" unicode-bidi="normal" text-decoration="none" transform="matrix(1 0 0 1 4606.56 1922)">75%</text></g><g clip-path="url(#clip14)"><text fill="#595959" fill-opacity="1" font-family="Calibri,Calibri_MSFontService,sans-serif" font-style="normal" font-variant="normal" font-weight="400" font-stretch="normal" font-size="41" text-anchor="start" direction="ltr" writing-mode="lr-tb" unicode-bidi="normal" text-decoration="none" transform="matrix(1 0 0 1 4803.04 1922)">90%</text></g><g clip-path="url(#clip15)"><text fill="#595959" fill-opacity="1" font-family="Calibri,Calibri_MSFontService,sans-serif" font-style="normal" font-variant="normal" font-weight="400" font-stretch="normal" font-size="41" text-anchor="start" direction="ltr" writing-mode="lr-tb" unicode-bidi="normal" text-decoration="none" transform="matrix(1 0 0 1 4999.53 1922)">99%</text></g><g clip-path="url(#clip16)"><text fill="#595959" fill-opacity="1" font-family="Calibri,Calibri_MSFontService,sans-serif" font-style="normal" font-variant="normal" font-weight="400" font-stretch="normal" font-size="41" text-anchor="start" direction="ltr" writing-mode="lr-tb" unicode-bidi="normal" text-decoration="none" transform="matrix(1 0 0 1 5169.92 1922)">99.90%</text></g><g clip-path="url(#clip17)"><text fill="#595959" fill-opacity="1" font-family="Calibri,Calibri_MSFontService,sans-serif" font-style="normal" font-variant="normal" font-weight="400" font-stretch="normal" font-size="41" text-anchor="start" direction="ltr" writing-mode="lr-tb" unicode-bidi="normal" text-decoration="none" transform="matrix(1 0 0 1 5366.41 1922)">99.99%</text></g><g clip-path="url(#clip18)"><text fill="#595959" fill-opacity="1" font-family="Calibri,Calibri_MSFontService,sans-serif" font-style="normal" font-variant="normal" font-weight="400" font-stretch="normal" font-size="41" text-anchor="start" direction="ltr" writing-mode="lr-tb" unicode-bidi="normal" text-decoration="none" transform="matrix(1 0 0 1 5552.44 1922)">99.999%</text></g><g clip-path="url(#clip19)"><text fill="#595959" fill-opacity="1" font-family="Calibri,Calibri_MSFontService,sans-serif" font-style="normal" font-variant="normal" font-weight="400" font-stretch="normal" font-size="41" text-anchor="start" direction="ltr" writing-mode="lr-tb" unicode-bidi="normal" text-decoration="none" transform="matrix(1 0 0 1 5775.03 1922)">100%</text></g><g clip-path="url(#clip20)"><text fill="#595959" fill-opacity="1" font-family="Times New Roman,Times New Roman_MSFontService,sans-serif" font-style="normal" font-variant="normal" font-weight="400" font-stretch="normal" font-size="46" text-anchor="start" direction="ltr" writing-mode="lr-tb" unicode-bidi="normal" text-decoration="none" transform="matrix(6.12323e-17 -1 1 6.12323e-17 4243.91 1650)">latancy (</text></g><g clip-path="url(#clip21)"><text fill="#595959" fill-opacity="1" font-family="Times New Roman,Times New Roman_MSFontService,sans-serif" font-style="normal" font-variant="normal" font-weight="400" font-stretch="normal" font-size="37" text-anchor="start" direction="ltr" writing-mode="lr-tb" unicode-bidi="normal" text-decoration="none" transform="matrix(6.12323e-17 -1 1 6.12323e-17 4243.91 1491)">ms</text></g><g clip-path="url(#clip22)"><text fill="#595959" fill-opacity="1" font-family="Times New Roman,Times New Roman_MSFontService,sans-serif" font-style="normal" font-variant="normal" font-weight="400" font-stretch="normal" font-size="46" text-anchor="start" direction="ltr" writing-mode="lr-tb" unicode-bidi="normal" text-decoration="none" transform="matrix(6.12323e-17 -1 1 6.12323e-17 4243.91 1448)">)</text></g><g clip-path="url(#clip23)"><text fill="#595959" fill-opacity="1" font-family="Calibri,Calibri_MSFontService,sans-serif" font-style="normal" font-variant="normal" font-weight="400" font-stretch="normal" font-size="46" text-anchor="start" direction="ltr" writing-mode="lr-tb" unicode-bidi="normal" text-decoration="none" transform="matrix(1 0 0 1 5039.46 1992)">Percentile</text></g><g clip-path="url(#clip24)"><path d="M4879 2099 4967 2099" stroke="#FFC000" stroke-width="10.3125" stroke-linecap="round" stroke-linejoin="round" stroke-miterlimit="10" stroke-opacity="1" fill="none" fill-rule="evenodd"/></g><g clip-path="url(#clip25)"><text fill="#595959" fill-opacity="1" font-family="Calibri,Calibri_MSFontService,sans-serif" font-style="normal" font-variant="normal" font-weight="400" font-stretch="normal" font-size="41" text-anchor="start" direction="ltr" writing-mode="lr-tb" unicode-bidi="normal" text-decoration="none" transform="matrix(1 0 0 1 4976.08 2110)">k8s</text></g><g clip-path="url(#clip26)"><path d="M5069 2099 5157 2099" stroke="#70AD47" stroke-width="10.3125" stroke-linecap="round" stroke-linejoin="round" stroke-miterlimit="10" stroke-opacity="1" fill="none" fill-rule="evenodd"/></g><g clip-path="url(#clip27)"><text fill="#595959" fill-opacity="1" font-family="Calibri,Calibri_MSFontService,sans-serif" font-style="normal" font-variant="normal" font-weight="400" font-stretch="normal" font-size="41" text-anchor="start" direction="ltr" writing-mode="lr-tb" unicode-bidi="normal" text-decoration="none" transform="matrix(1 0 0 1 5166.03 2110)">LEAD</text></g><rect x="4146.5" y="1176.5" width="1824" height="990" stroke="#D9D9D9" stroke-width="3.4375" stroke-linecap="butt" stroke-linejoin="round" stroke-miterlimit="10" stroke-opacity="1" fill="none"/></g></svg>