<svg width="1664" height="995" xmlns="http://www.w3.org/2000/svg" xmlns:xlink="http://www.w3.org/1999/xlink" xml:space="preserve" overflow="hidden"><defs><clipPath id="clip0"><rect x="4528" y="6760" width="1664" height="995"/></clipPath><clipPath id="clip1"><rect x="4532" y="6763" width="1655" height="990"/></clipPath><clipPath id="clip2"><rect x="4532" y="6763" width="1655" height="990"/></clipPath><clipPath id="clip3"><rect x="4532" y="6763" width="1655" height="990"/></clipPath><clipPath id="clip4"><rect x="4532" y="6763" width="1655" height="990"/></clipPath><clipPath id="clip5"><rect x="4775" y="6813" width="1365" height="640"/></clipPath><clipPath id="clip6"><rect x="4775" y="6813" width="1365" height="640"/></clipPath><clipPath id="clip7"><rect x="4532" y="6763" width="1655" height="990"/></clipPath><clipPath id="clip8"><rect x="4532" y="6763" width="1655" height="990"/></clipPath><clipPath id="clip9"><rect x="4532" y="6763" width="1655" height="990"/></clipPath><clipPath id="clip10"><rect x="4532" y="6763" width="1655" height="990"/></clipPath><clipPath id="clip11"><rect x="4532" y="6763" width="1655" height="990"/></clipPath><clipPath id="clip12"><rect x="4532" y="6763" width="1655" height="990"/></clipPath><clipPath id="clip13"><rect x="4532" y="6763" width="1655" height="990"/></clipPath><clipPath id="clip14"><rect x="4532" y="6763" width="1655" height="990"/></clipPath><clipPath id="clip15"><rect x="4532" y="6763" width="1655" height="990"/></clipPath><clipPath id="clip16"><rect x="4532" y="6763" width="1655" height="990"/></clipPath><clipPath id="clip17"><rect x="4532" y="6763" width="1655" height="990"/></clipPath><clipPath id="clip18"><rect x="4532" y="6763" width="1655" height="990"/></clipPath><clipPath id="clip19"><rect x="4532" y="6763" width="1655" height="990"/></clipPath><clipPath id="clip20"><rect x="4532" y="6763" width="1655" height="990"/></clipPath><clipPath id="clip21"><rect x="4532" y="6763" width="1655" height="990"/></clipPath><clipPath id="clip22"><rect x="4532" y="6763" width="1655" height="990"/></clipPath><clipPath id="clip23"><rect x="4532" y="6763" width="1655" height="990"/></clipPath><clipPath id="clip24"><rect x="4532" y="6763" width="1655" height="990"/></clipPath><clipPath id="clip25"><rect x="4532" y="6763" width="1655" height="990"/></clipPath><clipPath id="clip26"><rect x="4532" y="6763" width="1655" height="990"/></clipPath><clipPath id="clip27"><rect x="4532" y="6763" width="1655" height="990"/></clipPath><clipPath id="clip28"><rect x="4532" y="6763" width="1655" height="990"/></clipPath><clipPath id="clip29"><rect x="4532" y="6763" width="1655" height="990"/></clipPath></defs><g clip-path="url(#clip0)" transform="translate(-4528 -6760)"><rect x="4532" y="6763" width="1655" height="990" fill="#FFFFFF" fill-opacity="1"/><g clip-path="url(#clip1)"><path d="M4775.5 7343.74 6137.5 7343.74M4775.5 7237.74 6137.5 7237.74M4775.5 7131.73 6137.5 7131.73M4775.5 7025.73 6137.5 7025.73M4775.5 6919.73 6137.5 6919.73M4775.5 6813.5 6137.5 6813.5" stroke="#D9D9D9" stroke-width="3.4375" stroke-linecap="butt" stroke-linejoin="round" stroke-miterlimit="10" stroke-opacity="1" fill="none" fill-rule="nonzero"/></g><g clip-path="url(#clip2)"><path d="M4945.66 6813.5 4945.66 7450.5M5115.67 6813.5 5115.67 7450.5M5286.67 6813.5 5286.67 7450.5M5456.68 6813.5 5456.68 7450.5M5626.69 6813.5 5626.69 7450.5M5796.69 6813.5 5796.69 7450.5M5966.7 6813.5 5966.7 7450.5M6137.5 6813.5 6137.5 7450.5" stroke="#D9D9D9" stroke-width="3.4375" stroke-linecap="butt" stroke-linejoin="round" stroke-miterlimit="10" stroke-opacity="1" fill="none" fill-rule="nonzero"/></g><g clip-path="url(#clip3)"><path d="M0 0 0.000360892 637" stroke="#BFBFBF" stroke-width="3.4375" stroke-linecap="butt" stroke-linejoin="round" stroke-miterlimit="10" stroke-opacity="1" fill="none" fill-rule="evenodd" transform="matrix(1 0 0 -1 4775.5 7450.5)"/></g><g clip-path="url(#clip4)"><path d="M4775.5 7450.5 6137.5 7450.5" stroke="#BFBFBF" stroke-width="3.4375" stroke-linecap="butt" stroke-linejoin="round" stroke-miterlimit="10" stroke-opacity="1" fill="none" fill-rule="evenodd"/></g><g clip-path="url(#clip5)"><path d="M4860.5 7070.5 5030.67 6979.73 5200.67 6939.73 5371.68 6900.73 5541.68 6889.73 5711.69 6889.73 5881.69 6880.73 6051.5 6877.5" stroke="#FFC000" stroke-width="6.875" stroke-linecap="round" stroke-linejoin="round" stroke-miterlimit="10" stroke-opacity="1" fill="none" fill-rule="nonzero"/></g><g clip-path="url(#clip6)"><path d="M4860.5 7102.5 5030.67 7035.73 5200.67 7016.73 5371.68 6995.73 5541.68 6973.73 5711.69 6962.73 5881.69 6959.73 6051.5 6959.5" stroke="#70AD47" stroke-width="6.875" stroke-linecap="round" stroke-linejoin="round" stroke-miterlimit="10" stroke-opacity="1" fill="none" fill-rule="nonzero"/></g><g clip-path="url(#clip7)"><text fill="#595959" fill-opacity="1" font-family="Calibri,Calibri_MSFontService,sans-serif" font-style="normal" font-variant="normal" font-weight="400" font-stretch="normal" font-size="41" text-anchor="start" direction="ltr" writing-mode="lr-tb" unicode-bidi="normal" text-decoration="none" transform="matrix(1 0 0 1 4716.48 7460)">0</text></g><g clip-path="url(#clip8)"><text fill="#595959" fill-opacity="1" font-family="Calibri,Calibri_MSFontService,sans-serif" font-style="normal" font-variant="normal" font-weight="400" font-stretch="normal" font-size="41" text-anchor="start" direction="ltr" writing-mode="lr-tb" unicode-bidi="normal" text-decoration="none" transform="matrix(1 0 0 1 4653.78 7354)">1000</text></g><g clip-path="url(#clip9)"><text fill="#595959" fill-opacity="1" font-family="Calibri,Calibri_MSFontService,sans-serif" font-style="normal" font-variant="normal" font-weight="400" font-stretch="normal" font-size="41" text-anchor="start" direction="ltr" writing-mode="lr-tb" unicode-bidi="normal" text-decoration="none" transform="matrix(1 0 0 1 4653.78 7248)">2000</text></g><g clip-path="url(#clip10)"><text fill="#595959" fill-opacity="1" font-family="Calibri,Calibri_MSFontService,sans-serif" font-style="normal" font-variant="normal" font-weight="400" font-stretch="normal" font-size="41" text-anchor="start" direction="ltr" writing-mode="lr-tb" unicode-bidi="normal" text-decoration="none" transform="matrix(1 0 0 1 4653.78 7142)">3000</text></g><g clip-path="url(#clip11)"><text fill="#595959" fill-opacity="1" font-family="Calibri,Calibri_MSFontService,sans-serif" font-style="normal" font-variant="normal" font-weight="400" font-stretch="normal" font-size="41" text-anchor="start" direction="ltr" writing-mode="lr-tb" unicode-bidi="normal" text-decoration="none" transform="matrix(1 0 0 1 4653.78 7036)">4000</text></g><g clip-path="url(#clip12)"><text fill="#595959" fill-opacity="1" font-family="Calibri,Calibri_MSFontService,sans-serif" font-style="normal" font-variant="normal" font-weight="400" font-stretch="normal" font-size="41" text-anchor="start" direction="ltr" writing-mode="lr-tb" unicode-bidi="normal" text-decoration="none" transform="matrix(1 0 0 1 4653.78 6930)">5000</text></g><g clip-path="url(#clip13)"><text fill="#595959" fill-opacity="1" font-family="Calibri,Calibri_MSFontService,sans-serif" font-style="normal" font-variant="normal" font-weight="400" font-stretch="normal" font-size="41" text-anchor="start" direction="ltr" writing-mode="lr-tb" unicode-bidi="normal" text-decoration="none" transform="matrix(1 0 0 1 4653.78 6824)">6000</text></g><g clip-path="url(#clip14)"><text fill="#595959" fill-opacity="1" font-family="Calibri,Calibri_MSFontService,sans-serif" font-style="normal" font-variant="normal" font-weight="400" font-stretch="normal" font-size="41" text-anchor="start" direction="ltr" writing-mode="lr-tb" unicode-bidi="normal" text-decoration="none" transform="matrix(1 0 0 1 4825.09 7515)">50%</text></g><g clip-path="url(#clip15)"><text fill="#595959" fill-opacity="1" font-family="Calibri,Calibri_MSFontService,sans-serif" font-style="normal" font-variant="normal" font-weight="400" font-stretch="normal" font-size="41" text-anchor="start" direction="ltr" writing-mode="lr-tb" unicode-bidi="normal" text-decoration="none" transform="matrix(1 0 0 1 4995.27 7515)">75%</text></g><g clip-path="url(#clip16)"><text fill="#595959" fill-opacity="1" font-family="Calibri,Calibri_MSFontService,sans-serif" font-style="normal" font-variant="normal" font-weight="400" font-stretch="normal" font-size="41" text-anchor="start" direction="ltr" writing-mode="lr-tb" unicode-bidi="normal" text-decoration="none" transform="matrix(1 0 0 1 5165.45 7515)">90%</text></g><g clip-path="url(#clip17)"><text fill="#595959" fill-opacity="1" font-family="Calibri,Calibri_MSFontService,sans-serif" font-style="normal" font-variant="normal" font-weight="400" font-stretch="normal" font-size="41" text-anchor="start" direction="ltr" writing-mode="lr-tb" unicode-bidi="normal" text-decoration="none" transform="matrix(1 0 0 1 5335.63 7515)">99%</text></g><g clip-path="url(#clip18)"><text fill="#595959" fill-opacity="1" font-family="Calibri,Calibri_MSFontService,sans-serif" font-style="normal" font-variant="normal" font-weight="400" font-stretch="normal" font-size="41" text-anchor="start" direction="ltr" writing-mode="lr-tb" unicode-bidi="normal" text-decoration="none" transform="matrix(1 0 0 1 5479.71 7515)">99.90%</text></g><g clip-path="url(#clip19)"><text fill="#595959" fill-opacity="1" font-family="Calibri,Calibri_MSFontService,sans-serif" font-style="normal" font-variant="normal" font-weight="400" font-stretch="normal" font-size="41" text-anchor="start" direction="ltr" writing-mode="lr-tb" unicode-bidi="normal" text-decoration="none" transform="matrix(1 0 0 1 5649.88 7515)">99.99%</text></g><g clip-path="url(#clip20)"><text fill="#595959" fill-opacity="1" font-family="Calibri,Calibri_MSFontService,sans-serif" font-style="normal" font-variant="normal" font-weight="400" font-stretch="normal" font-size="41" text-anchor="start" direction="ltr" writing-mode="lr-tb" unicode-bidi="normal" text-decoration="none" transform="matrix(1 0 0 1 5809.61 7515)">99.999%</text></g><g clip-path="url(#clip21)"><text fill="#595959" fill-opacity="1" font-family="Calibri,Calibri_MSFontService,sans-serif" font-style="normal" font-variant="normal" font-weight="400" font-stretch="normal" font-size="41" text-anchor="start" direction="ltr" writing-mode="lr-tb" unicode-bidi="normal" text-decoration="none" transform="matrix(1 0 0 1 6005.9 7515)">100%</text></g><g clip-path="url(#clip22)"><text fill="#595959" fill-opacity="1" font-family="Times New Roman,Times New Roman_MSFontService,sans-serif" font-style="normal" font-variant="normal" font-weight="400" font-stretch="normal" font-size="46" text-anchor="start" direction="ltr" writing-mode="lr-tb" unicode-bidi="normal" text-decoration="none" transform="matrix(6.12323e-17 -1 1 6.12323e-17 4630.29 7248)">Latancy (</text></g><g clip-path="url(#clip23)"><text fill="#595959" fill-opacity="1" font-family="Times New Roman,Times New Roman_MSFontService,sans-serif" font-style="normal" font-variant="normal" font-weight="400" font-stretch="normal" font-size="37" text-anchor="start" direction="ltr" writing-mode="lr-tb" unicode-bidi="normal" text-decoration="none" transform="matrix(6.12323e-17 -1 1 6.12323e-17 4630.29 7074)">ms</text></g><g clip-path="url(#clip24)"><text fill="#595959" fill-opacity="1" font-family="Times New Roman,Times New Roman_MSFontService,sans-serif" font-style="normal" font-variant="normal" font-weight="400" font-stretch="normal" font-size="46" text-anchor="start" direction="ltr" writing-mode="lr-tb" unicode-bidi="normal" text-decoration="none" transform="matrix(6.12323e-17 -1 1 6.12323e-17 4630.29 7031)">)</text></g><g clip-path="url(#clip25)"><text fill="#595959" fill-opacity="1" font-family="Times New Roman,Times New Roman_MSFontService,sans-serif" font-style="normal" font-variant="normal" font-weight="400" font-stretch="normal" font-size="46" text-anchor="start" direction="ltr" writing-mode="lr-tb" unicode-bidi="normal" text-decoration="none" transform="matrix(1 0 0 1 5373.61 7581)">Requests</text></g><g clip-path="url(#clip26)"><path d="M5180.5 7686.5 5268.5 7686.5" stroke="#FFC000" stroke-width="6.875" stroke-linecap="round" stroke-linejoin="round" stroke-miterlimit="10" stroke-opacity="1" fill="none" fill-rule="evenodd"/></g><g clip-path="url(#clip27)"><text fill="#595959" fill-opacity="1" font-family="Calibri,Calibri_MSFontService,sans-serif" font-style="normal" font-variant="normal" font-weight="400" font-stretch="normal" font-size="41" text-anchor="start" direction="ltr" writing-mode="lr-tb" unicode-bidi="normal" text-decoration="none" transform="matrix(1 0 0 1 5278.12 7697)">k8s</text></g><g clip-path="url(#clip28)"><path d="M5370.5 7686.5 5458.5 7686.5" stroke="#70AD47" stroke-width="6.875" stroke-linecap="round" stroke-linejoin="round" stroke-miterlimit="10" stroke-opacity="1" fill="none" fill-rule="evenodd"/></g><g clip-path="url(#clip29)"><text fill="#595959" fill-opacity="1" font-family="Calibri,Calibri_MSFontService,sans-serif" font-style="normal" font-variant="normal" font-weight="400" font-stretch="normal" font-size="41" text-anchor="start" direction="ltr" writing-mode="lr-tb" unicode-bidi="normal" text-decoration="none" transform="matrix(1 0 0 1 5468.07 7697)">LEAD</text></g><rect x="4532.5" y="6763.5" width="1655" height="990" stroke="#D9D9D9" stroke-width="3.4375" stroke-linecap="butt" stroke-linejoin="round" stroke-miterlimit="10" stroke-opacity="1" fill="none"/></g></svg>