<svg width="1659" height="995" xmlns="http://www.w3.org/2000/svg" xmlns:xlink="http://www.w3.org/1999/xlink" xml:space="preserve" overflow="hidden"><defs><clipPath id="clip0"><rect x="2433" y="2259" width="1659" height="995"/></clipPath><clipPath id="clip1"><rect x="2438" y="2261" width="1650" height="990"/></clipPath><clipPath id="clip2"><rect x="2438" y="2261" width="1650" height="990"/></clipPath><clipPath id="clip3"><rect x="2661" y="2312" width="1380" height="640"/></clipPath><clipPath id="clip4"><rect x="2661" y="2312" width="1380" height="640"/></clipPath><clipPath id="clip5"><rect x="2438" y="2261" width="1650" height="990"/></clipPath><clipPath id="clip6"><rect x="2438" y="2261" width="1650" height="990"/></clipPath><clipPath id="clip7"><rect x="2438" y="2261" width="1650" height="990"/></clipPath><clipPath id="clip8"><rect x="2438" y="2261" width="1650" height="990"/></clipPath><clipPath id="clip9"><rect x="2438" y="2261" width="1650" height="990"/></clipPath><clipPath id="clip10"><rect x="2438" y="2261" width="1650" height="990"/></clipPath><clipPath id="clip11"><rect x="2438" y="2261" width="1650" height="990"/></clipPath><clipPath id="clip12"><rect x="2438" y="2261" width="1650" height="990"/></clipPath><clipPath id="clip13"><rect x="2438" y="2261" width="1650" height="990"/></clipPath><clipPath id="clip14"><rect x="2438" y="2261" width="1650" height="990"/></clipPath><clipPath id="clip15"><rect x="2438" y="2261" width="1650" height="990"/></clipPath><clipPath id="clip16"><rect x="2438" y="2261" width="1650" height="990"/></clipPath><clipPath id="clip17"><rect x="2438" y="2261" width="1650" height="990"/></clipPath><clipPath id="clip18"><rect x="2438" y="2261" width="1650" height="990"/></clipPath><clipPath id="clip19"><rect x="2438" y="2261" width="1650" height="990"/></clipPath><clipPath id="clip20"><rect x="2438" y="2261" width="1650" height="990"/></clipPath><clipPath id="clip21"><rect x="2438" y="2261" width="1650" height="990"/></clipPath><clipPath id="clip22"><rect x="2438" y="2261" width="1650" height="990"/></clipPath><clipPath id="clip23"><rect x="2438" y="2261" width="1650" height="990"/></clipPath><clipPath id="clip24"><rect x="2438" y="2261" width="1650" height="990"/></clipPath><clipPath id="clip25"><rect x="2438" y="2261" width="1650" height="990"/></clipPath><clipPath id="clip26"><rect x="2438" y="2261" width="1650" height="990"/></clipPath><clipPath id="clip27"><rect x="2438" y="2261" width="1650" height="990"/></clipPath><clipPath id="clip28"><rect x="2438" y="2261" width="1650" height="990"/></clipPath></defs><g clip-path="url(#clip0)" transform="translate(-2433 -2259)"><rect x="2438" y="2262" width="1650" height="990" fill="#FFFFFF" fill-opacity="1"/><g clip-path="url(#clip1)"><path d="M2661.5 2857.59 4037.5 2857.59M2661.5 2766.59 4037.5 2766.59M2661.5 2675.59 4037.5 2675.59M2661.5 2584.58 4037.5 2584.58M2661.5 2494.58 4037.5 2494.58M2661.5 2403.58 4037.5 2403.58M2661.5 2312.5 4037.5 2312.5" stroke="#D9D9D9" stroke-width="3.4375" stroke-linecap="butt" stroke-linejoin="round" stroke-miterlimit="10" stroke-opacity="1" fill="none" fill-rule="nonzero"/></g><g clip-path="url(#clip2)"><path d="M2661.5 2948.5 4037.5 2948.5" stroke="#D9D9D9" stroke-width="3.4375" stroke-linecap="butt" stroke-linejoin="round" stroke-miterlimit="10" stroke-opacity="1" fill="none" fill-rule="evenodd"/></g><g clip-path="url(#clip3)"><path d="M2747 2526C2804.38 2509.3 2861.76 2488.15 2919.14 2475.9 2976.52 2463.64 3033.91 2459.96 3091.29 2452.46 3148.67 2444.95 3206.05 2437.69 3263.43 2430.87 3320.81 2424.06 3378.19 2416.79 3435.57 2411.56 3492.95 2406.33 3550.33 2402.13 3607.71 2399.5 3665.1 2396.86 3722.48 2396.47 3779.86 2395.73 3837.24 2395 3894.62 2395.31 3952 2395.1" stroke="#FFC000" stroke-width="10.3125" stroke-linecap="round" stroke-linejoin="round" stroke-miterlimit="10" stroke-opacity="1" fill="none" fill-rule="nonzero"/></g><g clip-path="url(#clip4)"><path d="M2747 2753C2804.38 2742.32 2861.76 2731.35 2919.14 2720.96 2976.52 2710.58 3033.91 2703.84 3091.29 2690.7 3148.67 2677.56 3206.05 2654.84 3263.43 2642.15 3320.81 2629.46 3378.19 2620.96 3435.57 2614.56 3492.95 2608.16 3550.33 2606.09 3607.71 2603.76 3665.1 2601.43 3722.48 2601.16 3779.86 2600.58 3837.24 2600 3894.62 2600.37 3952 2600.27" stroke="#70AD47" stroke-width="10.3125" stroke-linecap="round" stroke-linejoin="round" stroke-miterlimit="10" stroke-opacity="1" fill="none" fill-rule="nonzero"/></g><g clip-path="url(#clip5)"><text fill="#595959" fill-opacity="1" font-family="Calibri,Calibri_MSFontService,sans-serif" font-style="normal" font-variant="normal" font-weight="400" font-stretch="normal" font-size="41" text-anchor="start" direction="ltr" writing-mode="lr-tb" unicode-bidi="normal" text-decoration="none" transform="matrix(1 0 0 1 2601.91 2959)">0</text></g><g clip-path="url(#clip6)"><text fill="#595959" fill-opacity="1" font-family="Calibri,Calibri_MSFontService,sans-serif" font-style="normal" font-variant="normal" font-weight="400" font-stretch="normal" font-size="41" text-anchor="start" direction="ltr" writing-mode="lr-tb" unicode-bidi="normal" text-decoration="none" transform="matrix(1 0 0 1 2581.01 2868)">20</text></g><g clip-path="url(#clip7)"><text fill="#595959" fill-opacity="1" font-family="Calibri,Calibri_MSFontService,sans-serif" font-style="normal" font-variant="normal" font-weight="400" font-stretch="normal" font-size="41" text-anchor="start" direction="ltr" writing-mode="lr-tb" unicode-bidi="normal" text-decoration="none" transform="matrix(1 0 0 1 2581.01 2777)">40</text></g><g clip-path="url(#clip8)"><text fill="#595959" fill-opacity="1" font-family="Calibri,Calibri_MSFontService,sans-serif" font-style="normal" font-variant="normal" font-weight="400" font-stretch="normal" font-size="41" text-anchor="start" direction="ltr" writing-mode="lr-tb" unicode-bidi="normal" text-decoration="none" transform="matrix(1 0 0 1 2581.01 2686)">60</text></g><g clip-path="url(#clip9)"><text fill="#595959" fill-opacity="1" font-family="Calibri,Calibri_MSFontService,sans-serif" font-style="normal" font-variant="normal" font-weight="400" font-stretch="normal" font-size="41" text-anchor="start" direction="ltr" writing-mode="lr-tb" unicode-bidi="normal" text-decoration="none" transform="matrix(1 0 0 1 2581.01 2595)">80</text></g><g clip-path="url(#clip10)"><text fill="#595959" fill-opacity="1" font-family="Calibri,Calibri_MSFontService,sans-serif" font-style="normal" font-variant="normal" font-weight="400" font-stretch="normal" font-size="41" text-anchor="start" direction="ltr" writing-mode="lr-tb" unicode-bidi="normal" text-decoration="none" transform="matrix(1 0 0 1 2560.11 2504)">100</text></g><g clip-path="url(#clip11)"><text fill="#595959" fill-opacity="1" font-family="Calibri,Calibri_MSFontService,sans-serif" font-style="normal" font-variant="normal" font-weight="400" font-stretch="normal" font-size="41" text-anchor="start" direction="ltr" writing-mode="lr-tb" unicode-bidi="normal" text-decoration="none" transform="matrix(1 0 0 1 2560.11 2413)">120</text></g><g clip-path="url(#clip12)"><text fill="#595959" fill-opacity="1" font-family="Calibri,Calibri_MSFontService,sans-serif" font-style="normal" font-variant="normal" font-weight="400" font-stretch="normal" font-size="41" text-anchor="start" direction="ltr" writing-mode="lr-tb" unicode-bidi="normal" text-decoration="none" transform="matrix(1 0 0 1 2560.11 2322)">140</text></g><g clip-path="url(#clip13)"><text fill="#595959" fill-opacity="1" font-family="Calibri,Calibri_MSFontService,sans-serif" font-style="normal" font-variant="normal" font-weight="400" font-stretch="normal" font-size="41" text-anchor="start" direction="ltr" writing-mode="lr-tb" unicode-bidi="normal" text-decoration="none" transform="matrix(1 0 0 1 2711.48 3014)">50%</text></g><g clip-path="url(#clip14)"><text fill="#595959" fill-opacity="1" font-family="Calibri,Calibri_MSFontService,sans-serif" font-style="normal" font-variant="normal" font-weight="400" font-stretch="normal" font-size="41" text-anchor="start" direction="ltr" writing-mode="lr-tb" unicode-bidi="normal" text-decoration="none" transform="matrix(1 0 0 1 2883.59 3014)">75%</text></g><g clip-path="url(#clip15)"><text fill="#595959" fill-opacity="1" font-family="Calibri,Calibri_MSFontService,sans-serif" font-style="normal" font-variant="normal" font-weight="400" font-stretch="normal" font-size="41" text-anchor="start" direction="ltr" writing-mode="lr-tb" unicode-bidi="normal" text-decoration="none" transform="matrix(1 0 0 1 3055.69 3014)">90%</text></g><g clip-path="url(#clip16)"><text fill="#595959" fill-opacity="1" font-family="Calibri,Calibri_MSFontService,sans-serif" font-style="normal" font-variant="normal" font-weight="400" font-stretch="normal" font-size="41" text-anchor="start" direction="ltr" writing-mode="lr-tb" unicode-bidi="normal" text-decoration="none" transform="matrix(1 0 0 1 3227.8 3014)">99%</text></g><g clip-path="url(#clip17)"><text fill="#595959" fill-opacity="1" font-family="Calibri,Calibri_MSFontService,sans-serif" font-style="normal" font-variant="normal" font-weight="400" font-stretch="normal" font-size="41" text-anchor="start" direction="ltr" writing-mode="lr-tb" unicode-bidi="normal" text-decoration="none" transform="matrix(1 0 0 1 3373.8 3014)">99.90%</text></g><g clip-path="url(#clip18)"><text fill="#595959" fill-opacity="1" font-family="Calibri,Calibri_MSFontService,sans-serif" font-style="normal" font-variant="normal" font-weight="400" font-stretch="normal" font-size="41" text-anchor="start" direction="ltr" writing-mode="lr-tb" unicode-bidi="normal" text-decoration="none" transform="matrix(1 0 0 1 3545.91 3014)">99.99%</text></g><g clip-path="url(#clip19)"><text fill="#595959" fill-opacity="1" font-family="Calibri,Calibri_MSFontService,sans-serif" font-style="normal" font-variant="normal" font-weight="400" font-stretch="normal" font-size="41" text-anchor="start" direction="ltr" writing-mode="lr-tb" unicode-bidi="normal" text-decoration="none" transform="matrix(1 0 0 1 3707.56 3014)">99.999%</text></g><g clip-path="url(#clip20)"><text fill="#595959" fill-opacity="1" font-family="Calibri,Calibri_MSFontService,sans-serif" font-style="normal" font-variant="normal" font-weight="400" font-stretch="normal" font-size="41" text-anchor="start" direction="ltr" writing-mode="lr-tb" unicode-bidi="normal" text-decoration="none" transform="matrix(1 0 0 1 3905.77 3014)">100%</text></g><g clip-path="url(#clip21)"><text fill="#595959" fill-opacity="1" font-family="Times New Roman,Times New Roman_MSFontService,sans-serif" font-style="normal" font-variant="normal" font-weight="400" font-stretch="normal" font-size="46" text-anchor="start" direction="ltr" writing-mode="lr-tb" unicode-bidi="normal" text-decoration="none" transform="matrix(6.12323e-17 -1 1 6.12323e-17 2536.62 2747)">Latancy (</text></g><g clip-path="url(#clip22)"><text fill="#595959" fill-opacity="1" font-family="Times New Roman,Times New Roman_MSFontService,sans-serif" font-style="normal" font-variant="normal" font-weight="400" font-stretch="normal" font-size="37" text-anchor="start" direction="ltr" writing-mode="lr-tb" unicode-bidi="normal" text-decoration="none" transform="matrix(6.12323e-17 -1 1 6.12323e-17 2536.62 2572)">ms</text></g><g clip-path="url(#clip23)"><text fill="#595959" fill-opacity="1" font-family="Times New Roman,Times New Roman_MSFontService,sans-serif" font-style="normal" font-variant="normal" font-weight="400" font-stretch="normal" font-size="46" text-anchor="start" direction="ltr" writing-mode="lr-tb" unicode-bidi="normal" text-decoration="none" transform="matrix(6.12323e-17 -1 1 6.12323e-17 2536.62 2530)">)</text></g><g clip-path="url(#clip24)"><text fill="#595959" fill-opacity="1" font-family="Times New Roman,Times New Roman_MSFontService,sans-serif" font-style="normal" font-variant="normal" font-weight="400" font-stretch="normal" font-size="46" text-anchor="start" direction="ltr" writing-mode="lr-tb" unicode-bidi="normal" text-decoration="none" transform="matrix(1 0 0 1 3266.75 3080)">Requests</text></g><g clip-path="url(#clip25)"><path d="M3084 3186 3172 3186" stroke="#FFC000" stroke-width="10.3125" stroke-linecap="round" stroke-linejoin="round" stroke-miterlimit="10" stroke-opacity="1" fill="none" fill-rule="evenodd"/></g><g clip-path="url(#clip26)"><text fill="#595959" fill-opacity="1" font-family="Calibri,Calibri_MSFontService,sans-serif" font-style="normal" font-variant="normal" font-weight="400" font-stretch="normal" font-size="41" text-anchor="start" direction="ltr" writing-mode="lr-tb" unicode-bidi="normal" text-decoration="none" transform="matrix(1 0 0 1 3181.71 3196)">k8s</text></g><g clip-path="url(#clip27)"><path d="M3274 3186 3362 3186" stroke="#70AD47" stroke-width="10.3125" stroke-linecap="round" stroke-linejoin="round" stroke-miterlimit="10" stroke-opacity="1" fill="none" fill-rule="evenodd"/></g><g clip-path="url(#clip28)"><text fill="#595959" fill-opacity="1" font-family="Calibri,Calibri_MSFontService,sans-serif" font-style="normal" font-variant="normal" font-weight="400" font-stretch="normal" font-size="41" text-anchor="start" direction="ltr" writing-mode="lr-tb" unicode-bidi="normal" text-decoration="none" transform="matrix(1 0 0 1 3371.65 3196)">LEAD</text></g><rect x="2438.5" y="2262.5" width="1650" height="990" stroke="#D9D9D9" stroke-width="3.4375" stroke-linecap="butt" stroke-linejoin="round" stroke-miterlimit="10" stroke-opacity="1" fill="none"/></g></svg>