<svg width="1664" height="995" xmlns="http://www.w3.org/2000/svg" xmlns:xlink="http://www.w3.org/1999/xlink" xml:space="preserve" overflow="hidden"><defs><clipPath id="clip0"><rect x="6343" y="5637" width="1664" height="995"/></clipPath><clipPath id="clip1"><rect x="6345" y="5642" width="1656" height="988"/></clipPath><clipPath id="clip2"><rect x="6345" y="5642" width="1656" height="988"/></clipPath><clipPath id="clip3"><rect x="6345" y="5642" width="1656" height="988"/></clipPath><clipPath id="clip4"><rect x="6345" y="5642" width="1656" height="988"/></clipPath><clipPath id="clip5"><rect x="6589" y="5692" width="1365" height="638"/></clipPath><clipPath id="clip6"><rect x="6589" y="5692" width="1365" height="638"/></clipPath><clipPath id="clip7"><rect x="6345" y="5642" width="1656" height="988"/></clipPath><clipPath id="clip8"><rect x="6345" y="5642" width="1656" height="988"/></clipPath><clipPath id="clip9"><rect x="6345" y="5642" width="1656" height="988"/></clipPath><clipPath id="clip10"><rect x="6345" y="5642" width="1656" height="988"/></clipPath><clipPath id="clip11"><rect x="6345" y="5642" width="1656" height="988"/></clipPath><clipPath id="clip12"><rect x="6345" y="5642" width="1656" height="988"/></clipPath><clipPath id="clip13"><rect x="6345" y="5642" width="1656" height="988"/></clipPath><clipPath id="clip14"><rect x="6345" y="5642" width="1656" height="988"/></clipPath><clipPath id="clip15"><rect x="6345" y="5642" width="1656" height="988"/></clipPath><clipPath id="clip16"><rect x="6345" y="5642" width="1656" height="988"/></clipPath><clipPath id="clip17"><rect x="6345" y="5642" width="1656" height="988"/></clipPath><clipPath id="clip18"><rect x="6345" y="5642" width="1656" height="988"/></clipPath><clipPath id="clip19"><rect x="6345" y="5642" width="1656" height="988"/></clipPath><clipPath id="clip20"><rect x="6345" y="5642" width="1656" height="988"/></clipPath><clipPath id="clip21"><rect x="6345" y="5642" width="1656" height="988"/></clipPath><clipPath id="clip22"><rect x="6345" y="5642" width="1656" height="988"/></clipPath><clipPath id="clip23"><rect x="6345" y="5642" width="1656" height="988"/></clipPath><clipPath id="clip24"><rect x="6345" y="5642" width="1656" height="988"/></clipPath><clipPath id="clip25"><rect x="6345" y="5642" width="1656" height="988"/></clipPath><clipPath id="clip26"><rect x="6345" y="5642" width="1656" height="988"/></clipPath><clipPath id="clip27"><rect x="6345" y="5642" width="1656" height="988"/></clipPath><clipPath id="clip28"><rect x="6345" y="5642" width="1656" height="988"/></clipPath><clipPath id="clip29"><rect x="6345" y="5642" width="1656" height="988"/></clipPath><clipPath id="clip30"><rect x="6345" y="5642" width="1656" height="988"/></clipPath></defs><g clip-path="url(#clip0)" transform="translate(-6343 -5637)"><rect x="6346" y="5642" width="1655" height="988" fill="#FFFFFF" fill-opacity="1"/><g clip-path="url(#clip1)"><path d="M6589.5 6236.7 7950.5 6236.7M6589.5 6145.7 7950.5 6145.7M6589.5 6055.7 7950.5 6055.7M6589.5 5964.7 7950.5 5964.7M6589.5 5873.69 7950.5 5873.69M6589.5 5783.69 7950.5 5783.69M6589.5 5692.5 7950.5 5692.5" stroke="#D9D9D9" stroke-width="3.4375" stroke-linecap="butt" stroke-linejoin="round" stroke-miterlimit="10" stroke-opacity="1" fill="none" fill-rule="nonzero"/></g><g clip-path="url(#clip2)"><path d="M6759.72 5692.5 6759.72 6327.5M6929.73 5692.5 6929.73 6327.5M7099.73 5692.5 7099.73 6327.5M7270.74 5692.5 7270.74 6327.5M7440.74 5692.5 7440.74 6327.5M7610.75 5692.5 7610.75 6327.5M7780.76 5692.5 7780.76 6327.5M7950.5 5692.5 7950.5 6327.5" stroke="#D9D9D9" stroke-width="3.4375" stroke-linecap="butt" stroke-linejoin="round" stroke-miterlimit="10" stroke-opacity="1" fill="none" fill-rule="nonzero"/></g><g clip-path="url(#clip3)"><path d="M0 0 0.000360892 635" stroke="#BFBFBF" stroke-width="3.4375" stroke-linecap="butt" stroke-linejoin="round" stroke-miterlimit="10" stroke-opacity="1" fill="none" fill-rule="evenodd" transform="matrix(1 0 0 -1 6589.5 6327.5)"/></g><g clip-path="url(#clip4)"><path d="M6589.5 6327.5 7950.5 6327.5" stroke="#BFBFBF" stroke-width="3.4375" stroke-linecap="butt" stroke-linejoin="round" stroke-miterlimit="10" stroke-opacity="1" fill="none" fill-rule="evenodd"/></g><g clip-path="url(#clip5)"><path d="M6674.5 5929.5 6844.72 5871.69 7014.73 5832.69 7184.74 5789.69 7355.74 5778.69 7525.75 5769.69 7695.75 5765.69 7865.5 5765.5" stroke="#FFC000" stroke-width="6.875" stroke-linecap="round" stroke-linejoin="round" stroke-miterlimit="10" stroke-opacity="1" fill="none" fill-rule="nonzero"/></g><g clip-path="url(#clip6)"><path d="M6674.5 5916.5 6844.72 5882.69 7014.73 5869.69 7184.74 5850.69 7355.74 5838.69 7525.75 5832.69 7695.75 5830.69 7865.5 5830.5" stroke="#70AD47" stroke-width="6.875" stroke-linecap="round" stroke-linejoin="round" stroke-miterlimit="10" stroke-opacity="1" fill="none" fill-rule="nonzero"/></g><g clip-path="url(#clip7)"><text fill="#595959" fill-opacity="1" font-family="Calibri,Calibri_MSFontService,sans-serif" font-style="normal" font-variant="normal" font-weight="400" font-stretch="normal" font-size="41" text-anchor="start" direction="ltr" writing-mode="lr-tb" unicode-bidi="normal" text-decoration="none" transform="matrix(1 0 0 1 6530.37 6337)">0</text></g><g clip-path="url(#clip8)"><text fill="#595959" fill-opacity="1" font-family="Calibri,Calibri_MSFontService,sans-serif" font-style="normal" font-variant="normal" font-weight="400" font-stretch="normal" font-size="41" text-anchor="start" direction="ltr" writing-mode="lr-tb" unicode-bidi="normal" text-decoration="none" transform="matrix(1 0 0 1 6467.67 6247)">1000</text></g><g clip-path="url(#clip9)"><text fill="#595959" fill-opacity="1" font-family="Calibri,Calibri_MSFontService,sans-serif" font-style="normal" font-variant="normal" font-weight="400" font-stretch="normal" font-size="41" text-anchor="start" direction="ltr" writing-mode="lr-tb" unicode-bidi="normal" text-decoration="none" transform="matrix(1 0 0 1 6467.67 6156)">2000</text></g><g clip-path="url(#clip10)"><text fill="#595959" fill-opacity="1" font-family="Calibri,Calibri_MSFontService,sans-serif" font-style="normal" font-variant="normal" font-weight="400" font-stretch="normal" font-size="41" text-anchor="start" direction="ltr" writing-mode="lr-tb" unicode-bidi="normal" text-decoration="none" transform="matrix(1 0 0 1 6467.67 6065)">3000</text></g><g clip-path="url(#clip11)"><text fill="#595959" fill-opacity="1" font-family="Calibri,Calibri_MSFontService,sans-serif" font-style="normal" font-variant="normal" font-weight="400" font-stretch="normal" font-size="41" text-anchor="start" direction="ltr" writing-mode="lr-tb" unicode-bidi="normal" text-decoration="none" transform="matrix(1 0 0 1 6467.67 5975)">4000</text></g><g clip-path="url(#clip12)"><text fill="#595959" fill-opacity="1" font-family="Calibri,Calibri_MSFontService,sans-serif" font-style="normal" font-variant="normal" font-weight="400" font-stretch="normal" font-size="41" text-anchor="start" direction="ltr" writing-mode="lr-tb" unicode-bidi="normal" text-decoration="none" transform="matrix(1 0 0 1 6467.67 5884)">5000</text></g><g clip-path="url(#clip13)"><text fill="#595959" fill-opacity="1" font-family="Calibri,Calibri_MSFontService,sans-serif" font-style="normal" font-variant="normal" font-weight="400" font-stretch="normal" font-size="41" text-anchor="start" direction="ltr" writing-mode="lr-tb" unicode-bidi="normal" text-decoration="none" transform="matrix(1 0 0 1 6467.67 5793)">6000</text></g><g clip-path="url(#clip14)"><text fill="#595959" fill-opacity="1" font-family="Calibri,Calibri_MSFontService,sans-serif" font-style="normal" font-variant="normal" font-weight="400" font-stretch="normal" font-size="41" text-anchor="start" direction="ltr" writing-mode="lr-tb" unicode-bidi="normal" text-decoration="none" transform="matrix(1 0 0 1 6467.67 5703)">7000</text></g><g clip-path="url(#clip15)"><text fill="#595959" fill-opacity="1" font-family="Calibri,Calibri_MSFontService,sans-serif" font-style="normal" font-variant="normal" font-weight="400" font-stretch="normal" font-size="41" text-anchor="start" direction="ltr" writing-mode="lr-tb" unicode-bidi="normal" text-decoration="none" transform="matrix(1 0 0 1 6638.98 6392)">50%</text></g><g clip-path="url(#clip16)"><text fill="#595959" fill-opacity="1" font-family="Calibri,Calibri_MSFontService,sans-serif" font-style="normal" font-variant="normal" font-weight="400" font-stretch="normal" font-size="41" text-anchor="start" direction="ltr" writing-mode="lr-tb" unicode-bidi="normal" text-decoration="none" transform="matrix(1 0 0 1 6809.16 6392)">75%</text></g><g clip-path="url(#clip17)"><text fill="#595959" fill-opacity="1" font-family="Calibri,Calibri_MSFontService,sans-serif" font-style="normal" font-variant="normal" font-weight="400" font-stretch="normal" font-size="41" text-anchor="start" direction="ltr" writing-mode="lr-tb" unicode-bidi="normal" text-decoration="none" transform="matrix(1 0 0 1 6979.34 6392)">90%</text></g><g clip-path="url(#clip18)"><text fill="#595959" fill-opacity="1" font-family="Calibri,Calibri_MSFontService,sans-serif" font-style="normal" font-variant="normal" font-weight="400" font-stretch="normal" font-size="41" text-anchor="start" direction="ltr" writing-mode="lr-tb" unicode-bidi="normal" text-decoration="none" transform="matrix(1 0 0 1 7149.52 6392)">99%</text></g><g clip-path="url(#clip19)"><text fill="#595959" fill-opacity="1" font-family="Calibri,Calibri_MSFontService,sans-serif" font-style="normal" font-variant="normal" font-weight="400" font-stretch="normal" font-size="41" text-anchor="start" direction="ltr" writing-mode="lr-tb" unicode-bidi="normal" text-decoration="none" transform="matrix(1 0 0 1 7293.59 6392)">99.90%</text></g><g clip-path="url(#clip20)"><text fill="#595959" fill-opacity="1" font-family="Calibri,Calibri_MSFontService,sans-serif" font-style="normal" font-variant="normal" font-weight="400" font-stretch="normal" font-size="41" text-anchor="start" direction="ltr" writing-mode="lr-tb" unicode-bidi="normal" text-decoration="none" transform="matrix(1 0 0 1 7463.77 6392)">99.99%</text></g><g clip-path="url(#clip21)"><text fill="#595959" fill-opacity="1" font-family="Calibri,Calibri_MSFontService,sans-serif" font-style="normal" font-variant="normal" font-weight="400" font-stretch="normal" font-size="41" text-anchor="start" direction="ltr" writing-mode="lr-tb" unicode-bidi="normal" text-decoration="none" transform="matrix(1 0 0 1 7623.5 6392)">99.999%</text></g><g clip-path="url(#clip22)"><text fill="#595959" fill-opacity="1" font-family="Calibri,Calibri_MSFontService,sans-serif" font-style="normal" font-variant="normal" font-weight="400" font-stretch="normal" font-size="41" text-anchor="start" direction="ltr" writing-mode="lr-tb" unicode-bidi="normal" text-decoration="none" transform="matrix(1 0 0 1 7819.78 6392)">100%</text></g><g clip-path="url(#clip23)"><text fill="#595959" fill-opacity="1" font-family="Times New Roman,Times New Roman_MSFontService,sans-serif" font-style="normal" font-variant="normal" font-weight="400" font-stretch="normal" font-size="46" text-anchor="start" direction="ltr" writing-mode="lr-tb" unicode-bidi="normal" text-decoration="none" transform="matrix(6.12323e-17 -1 1 6.12323e-17 6444.18 6126)">Latancy (</text></g><g clip-path="url(#clip24)"><text fill="#595959" fill-opacity="1" font-family="Times New Roman,Times New Roman_MSFontService,sans-serif" font-style="normal" font-variant="normal" font-weight="400" font-stretch="normal" font-size="37" text-anchor="start" direction="ltr" writing-mode="lr-tb" unicode-bidi="normal" text-decoration="none" transform="matrix(6.12323e-17 -1 1 6.12323e-17 6444.18 5952)">ms</text></g><g clip-path="url(#clip25)"><text fill="#595959" fill-opacity="1" font-family="Times New Roman,Times New Roman_MSFontService,sans-serif" font-style="normal" font-variant="normal" font-weight="400" font-stretch="normal" font-size="46" text-anchor="start" direction="ltr" writing-mode="lr-tb" unicode-bidi="normal" text-decoration="none" transform="matrix(6.12323e-17 -1 1 6.12323e-17 6444.18 5909)">)</text></g><g clip-path="url(#clip26)"><text fill="#595959" fill-opacity="1" font-family="Times New Roman,Times New Roman_MSFontService,sans-serif" font-style="normal" font-variant="normal" font-weight="400" font-stretch="normal" font-size="46" text-anchor="start" direction="ltr" writing-mode="lr-tb" unicode-bidi="normal" text-decoration="none" transform="matrix(1 0 0 1 7187.5 6459)">Requests</text></g><g clip-path="url(#clip27)"><path d="M6994.5 6564.5 7082.5 6564.5" stroke="#FFC000" stroke-width="6.875" stroke-linecap="round" stroke-linejoin="round" stroke-miterlimit="10" stroke-opacity="1" fill="none" fill-rule="evenodd"/></g><g clip-path="url(#clip28)"><text fill="#595959" fill-opacity="1" font-family="Calibri,Calibri_MSFontService,sans-serif" font-style="normal" font-variant="normal" font-weight="400" font-stretch="normal" font-size="41" text-anchor="start" direction="ltr" writing-mode="lr-tb" unicode-bidi="normal" text-decoration="none" transform="matrix(1 0 0 1 7092.01 6574)">k8s</text></g><g clip-path="url(#clip29)"><path d="M7184.5 6564.5 7272.5 6564.5" stroke="#70AD47" stroke-width="6.875" stroke-linecap="round" stroke-linejoin="round" stroke-miterlimit="10" stroke-opacity="1" fill="none" fill-rule="evenodd"/></g><g clip-path="url(#clip30)"><text fill="#595959" fill-opacity="1" font-family="Calibri,Calibri_MSFontService,sans-serif" font-style="normal" font-variant="normal" font-weight="400" font-stretch="normal" font-size="41" text-anchor="start" direction="ltr" writing-mode="lr-tb" unicode-bidi="normal" text-decoration="none" transform="matrix(1 0 0 1 7281.96 6574)">LEAD</text></g><rect x="6346.5" y="5642.5" width="1655" height="988" stroke="#D9D9D9" stroke-width="3.4375" stroke-linecap="butt" stroke-linejoin="round" stroke-miterlimit="10" stroke-opacity="1" fill="none"/></g></svg>