<svg width="1659" height="995" xmlns="http://www.w3.org/2000/svg" xmlns:xlink="http://www.w3.org/1999/xlink" xml:space="preserve" overflow="hidden"><defs><clipPath id="clip0"><rect x="2438" y="146" width="1659" height="995"/></clipPath><clipPath id="clip1"><rect x="2440" y="148" width="1650" height="990"/></clipPath><clipPath id="clip2"><rect x="2440" y="148" width="1650" height="990"/></clipPath><clipPath id="clip3"><rect x="2663" y="199" width="1380" height="640"/></clipPath><clipPath id="clip4"><rect x="2663" y="199" width="1380" height="640"/></clipPath><clipPath id="clip5"><rect x="2440" y="148" width="1650" height="990"/></clipPath><clipPath id="clip6"><rect x="2440" y="148" width="1650" height="990"/></clipPath><clipPath id="clip7"><rect x="2440" y="148" width="1650" height="990"/></clipPath><clipPath id="clip8"><rect x="2440" y="148" width="1650" height="990"/></clipPath><clipPath id="clip9"><rect x="2440" y="148" width="1650" height="990"/></clipPath><clipPath id="clip10"><rect x="2440" y="148" width="1650" height="990"/></clipPath><clipPath id="clip11"><rect x="2440" y="148" width="1650" height="990"/></clipPath><clipPath id="clip12"><rect x="2440" y="148" width="1650" height="990"/></clipPath><clipPath id="clip13"><rect x="2440" y="148" width="1650" height="990"/></clipPath><clipPath id="clip14"><rect x="2440" y="148" width="1650" height="990"/></clipPath><clipPath id="clip15"><rect x="2440" y="148" width="1650" height="990"/></clipPath><clipPath id="clip16"><rect x="2440" y="148" width="1650" height="990"/></clipPath><clipPath id="clip17"><rect x="2440" y="148" width="1650" height="990"/></clipPath><clipPath id="clip18"><rect x="2440" y="148" width="1650" height="990"/></clipPath><clipPath id="clip19"><rect x="2440" y="148" width="1650" height="990"/></clipPath><clipPath id="clip20"><rect x="2440" y="148" width="1650" height="990"/></clipPath><clipPath id="clip21"><rect x="2440" y="148" width="1650" height="990"/></clipPath><clipPath id="clip22"><rect x="2440" y="148" width="1650" height="990"/></clipPath><clipPath id="clip23"><rect x="2440" y="148" width="1650" height="990"/></clipPath><clipPath id="clip24"><rect x="2440" y="148" width="1650" height="990"/></clipPath><clipPath id="clip25"><rect x="2440" y="148" width="1650" height="990"/></clipPath><clipPath id="clip26"><rect x="2440" y="148" width="1650" height="990"/></clipPath><clipPath id="clip27"><rect x="2440" y="148" width="1650" height="990"/></clipPath><clipPath id="clip28"><rect x="2440" y="148" width="1650" height="990"/></clipPath><clipPath id="clip29"><rect x="2440" y="148" width="1650" height="990"/></clipPath><clipPath id="clip30"><rect x="2440" y="148" width="1650" height="990"/></clipPath></defs><g clip-path="url(#clip0)" transform="translate(-2438 -146)"><rect x="2441" y="149" width="1650" height="990" fill="#FFFFFF" fill-opacity="1"/><g clip-path="url(#clip1)"><path d="M2663.5 772.526 4040.5 772.526M2663.5 708.523 4040.5 708.523M2663.5 644.521 4040.5 644.521M2663.5 581.519 4040.5 581.519M2663.5 517.517 4040.5 517.517M2663.5 453.515 4040.5 453.515M2663.5 390.513 4040.5 390.513M2663.5 326.511 4040.5 326.511M2663.5 263.509 4040.5 263.509M2663.5 199.5 4040.5 199.5" stroke="#D9D9D9" stroke-width="3.4375" stroke-linecap="butt" stroke-linejoin="round" stroke-miterlimit="10" stroke-opacity="1" fill="none" fill-rule="nonzero"/></g><g clip-path="url(#clip2)"><path d="M2663.5 835.5 4040.5 835.501" stroke="#D9D9D9" stroke-width="3.4375" stroke-linecap="butt" stroke-linejoin="round" stroke-miterlimit="10" stroke-opacity="1" fill="none" fill-rule="evenodd"/></g><g clip-path="url(#clip3)"><path d="M2749 457C2806.38 426.763 2863.76 388.15 2921.14 366.289 2978.52 344.427 3035.91 339.02 3093.29 325.831 3150.67 312.642 3208.05 295.531 3265.43 287.155 3322.81 278.779 3380.19 278.917 3437.57 275.578 3494.95 272.238 3552.33 268.898 3609.71 267.117 3667.1 265.336 3724.48 265.41 3781.86 264.891 3839.24 264.371 3896.62 264.297 3954 264" stroke="#FFC000" stroke-width="10.3125" stroke-linecap="round" stroke-linejoin="round" stroke-miterlimit="10" stroke-opacity="1" fill="none" fill-rule="nonzero"/></g><g clip-path="url(#clip4)"><path d="M2749 488C2806.38 465.871 2863.76 435.929 2921.14 421.614 2978.52 407.299 3035.91 408.771 3093.29 402.111 3150.67 395.451 3208.05 388.802 3265.43 381.655 3322.81 374.508 3380.19 364.82 3437.57 359.23 3494.95 353.64 3552.33 350.336 3609.71 348.113 3667.1 345.889 3724.48 346.408 3781.86 345.89 3839.24 345.37 3896.62 345.297 3954 345" stroke="#70AD47" stroke-width="10.3125" stroke-linecap="round" stroke-linejoin="round" stroke-miterlimit="10" stroke-opacity="1" fill="none" fill-rule="nonzero"/></g><g clip-path="url(#clip5)"><text fill="#595959" fill-opacity="1" font-family="Calibri,Calibri_MSFontService,sans-serif" font-style="normal" font-variant="normal" font-weight="400" font-stretch="normal" font-size="41" text-anchor="start" direction="ltr" writing-mode="lr-tb" unicode-bidi="normal" text-decoration="none" transform="matrix(1 0 0 1 2604.2 846)">0</text></g><g clip-path="url(#clip6)"><text fill="#595959" fill-opacity="1" font-family="Calibri,Calibri_MSFontService,sans-serif" font-style="normal" font-variant="normal" font-weight="400" font-stretch="normal" font-size="41" text-anchor="start" direction="ltr" writing-mode="lr-tb" unicode-bidi="normal" text-decoration="none" transform="matrix(1 0 0 1 2583.3 782)">10</text></g><g clip-path="url(#clip7)"><text fill="#595959" fill-opacity="1" font-family="Calibri,Calibri_MSFontService,sans-serif" font-style="normal" font-variant="normal" font-weight="400" font-stretch="normal" font-size="41" text-anchor="start" direction="ltr" writing-mode="lr-tb" unicode-bidi="normal" text-decoration="none" transform="matrix(1 0 0 1 2583.3 719)">20</text></g><g clip-path="url(#clip8)"><text fill="#595959" fill-opacity="1" font-family="Calibri,Calibri_MSFontService,sans-serif" font-style="normal" font-variant="normal" font-weight="400" font-stretch="normal" font-size="41" text-anchor="start" direction="ltr" writing-mode="lr-tb" unicode-bidi="normal" text-decoration="none" transform="matrix(1 0 0 1 2583.3 655)">30</text></g><g clip-path="url(#clip9)"><text fill="#595959" fill-opacity="1" font-family="Calibri,Calibri_MSFontService,sans-serif" font-style="normal" font-variant="normal" font-weight="400" font-stretch="normal" font-size="41" text-anchor="start" direction="ltr" writing-mode="lr-tb" unicode-bidi="normal" text-decoration="none" transform="matrix(1 0 0 1 2583.3 591)">40</text></g><g clip-path="url(#clip10)"><text fill="#595959" fill-opacity="1" font-family="Calibri,Calibri_MSFontService,sans-serif" font-style="normal" font-variant="normal" font-weight="400" font-stretch="normal" font-size="41" text-anchor="start" direction="ltr" writing-mode="lr-tb" unicode-bidi="normal" text-decoration="none" transform="matrix(1 0 0 1 2583.3 528)">50</text></g><g clip-path="url(#clip11)"><text fill="#595959" fill-opacity="1" font-family="Calibri,Calibri_MSFontService,sans-serif" font-style="normal" font-variant="normal" font-weight="400" font-stretch="normal" font-size="41" text-anchor="start" direction="ltr" writing-mode="lr-tb" unicode-bidi="normal" text-decoration="none" transform="matrix(1 0 0 1 2583.3 464)">60</text></g><g clip-path="url(#clip12)"><text fill="#595959" fill-opacity="1" font-family="Calibri,Calibri_MSFontService,sans-serif" font-style="normal" font-variant="normal" font-weight="400" font-stretch="normal" font-size="41" text-anchor="start" direction="ltr" writing-mode="lr-tb" unicode-bidi="normal" text-decoration="none" transform="matrix(1 0 0 1 2583.3 400)">70</text></g><g clip-path="url(#clip13)"><text fill="#595959" fill-opacity="1" font-family="Calibri,Calibri_MSFontService,sans-serif" font-style="normal" font-variant="normal" font-weight="400" font-stretch="normal" font-size="41" text-anchor="start" direction="ltr" writing-mode="lr-tb" unicode-bidi="normal" text-decoration="none" transform="matrix(1 0 0 1 2583.3 337)">80</text></g><g clip-path="url(#clip14)"><text fill="#595959" fill-opacity="1" font-family="Calibri,Calibri_MSFontService,sans-serif" font-style="normal" font-variant="normal" font-weight="400" font-stretch="normal" font-size="41" text-anchor="start" direction="ltr" writing-mode="lr-tb" unicode-bidi="normal" text-decoration="none" transform="matrix(1 0 0 1 2583.3 273)">90</text></g><g clip-path="url(#clip15)"><text fill="#595959" fill-opacity="1" font-family="Calibri,Calibri_MSFontService,sans-serif" font-style="normal" font-variant="normal" font-weight="400" font-stretch="normal" font-size="41" text-anchor="start" direction="ltr" writing-mode="lr-tb" unicode-bidi="normal" text-decoration="none" transform="matrix(1 0 0 1 2562.4 209)">100</text></g><g clip-path="url(#clip16)"><text fill="#595959" fill-opacity="1" font-family="Calibri,Calibri_MSFontService,sans-serif" font-style="normal" font-variant="normal" font-weight="400" font-stretch="normal" font-size="41" text-anchor="start" direction="ltr" writing-mode="lr-tb" unicode-bidi="normal" text-decoration="none" transform="matrix(1 0 0 1 2713.78 901)">50%</text></g><g clip-path="url(#clip17)"><text fill="#595959" fill-opacity="1" font-family="Calibri,Calibri_MSFontService,sans-serif" font-style="normal" font-variant="normal" font-weight="400" font-stretch="normal" font-size="41" text-anchor="start" direction="ltr" writing-mode="lr-tb" unicode-bidi="normal" text-decoration="none" transform="matrix(1 0 0 1 2885.88 901)">75%</text></g><g clip-path="url(#clip18)"><text fill="#595959" fill-opacity="1" font-family="Calibri,Calibri_MSFontService,sans-serif" font-style="normal" font-variant="normal" font-weight="400" font-stretch="normal" font-size="41" text-anchor="start" direction="ltr" writing-mode="lr-tb" unicode-bidi="normal" text-decoration="none" transform="matrix(1 0 0 1 3057.99 901)">90%</text></g><g clip-path="url(#clip19)"><text fill="#595959" fill-opacity="1" font-family="Calibri,Calibri_MSFontService,sans-serif" font-style="normal" font-variant="normal" font-weight="400" font-stretch="normal" font-size="41" text-anchor="start" direction="ltr" writing-mode="lr-tb" unicode-bidi="normal" text-decoration="none" transform="matrix(1 0 0 1 3230.09 901)">99%</text></g><g clip-path="url(#clip20)"><text fill="#595959" fill-opacity="1" font-family="Calibri,Calibri_MSFontService,sans-serif" font-style="normal" font-variant="normal" font-weight="400" font-stretch="normal" font-size="41" text-anchor="start" direction="ltr" writing-mode="lr-tb" unicode-bidi="normal" text-decoration="none" transform="matrix(1 0 0 1 3376.09 901)">99.90%</text></g><g clip-path="url(#clip21)"><text fill="#595959" fill-opacity="1" font-family="Calibri,Calibri_MSFontService,sans-serif" font-style="normal" font-variant="normal" font-weight="400" font-stretch="normal" font-size="41" text-anchor="start" direction="ltr" writing-mode="lr-tb" unicode-bidi="normal" text-decoration="none" transform="matrix(1 0 0 1 3548.2 901)">99.99%</text></g><g clip-path="url(#clip22)"><text fill="#595959" fill-opacity="1" font-family="Calibri,Calibri_MSFontService,sans-serif" font-style="normal" font-variant="normal" font-weight="400" font-stretch="normal" font-size="41" text-anchor="start" direction="ltr" writing-mode="lr-tb" unicode-bidi="normal" text-decoration="none" transform="matrix(1 0 0 1 3709.85 901)">99.999%</text></g><g clip-path="url(#clip23)"><text fill="#595959" fill-opacity="1" font-family="Calibri,Calibri_MSFontService,sans-serif" font-style="normal" font-variant="normal" font-weight="400" font-stretch="normal" font-size="41" text-anchor="start" direction="ltr" writing-mode="lr-tb" unicode-bidi="normal" text-decoration="none" transform="matrix(1 0 0 1 3908.06 901)">100%</text></g><g clip-path="url(#clip24)"><text fill="#595959" fill-opacity="1" font-family="Times New Roman,Times New Roman_MSFontService,sans-serif" font-style="normal" font-variant="normal" font-weight="400" font-stretch="normal" font-size="46" text-anchor="start" direction="ltr" writing-mode="lr-tb" unicode-bidi="normal" text-decoration="none" transform="matrix(6.12323e-17 -1 1 6.12323e-17 2538.91 625)">latancy (</text></g><g clip-path="url(#clip25)"><text fill="#595959" fill-opacity="1" font-family="Times New Roman,Times New Roman_MSFontService,sans-serif" font-style="normal" font-variant="normal" font-weight="400" font-stretch="normal" font-size="37" text-anchor="start" direction="ltr" writing-mode="lr-tb" unicode-bidi="normal" text-decoration="none" transform="matrix(6.12323e-17 -1 1 6.12323e-17 2538.91 466)">ms)</text></g><g clip-path="url(#clip26)"><text fill="#595959" fill-opacity="1" font-family="Times New Roman,Times New Roman_MSFontService,sans-serif" font-style="normal" font-variant="normal" font-weight="400" font-stretch="normal" font-size="46" text-anchor="start" direction="ltr" writing-mode="lr-tb" unicode-bidi="normal" text-decoration="none" transform="matrix(1 0 0 1 3269.04 967)">Requests</text></g><g clip-path="url(#clip27)"><path d="M3087 1073 3175 1073" stroke="#FFC000" stroke-width="10.3125" stroke-linecap="round" stroke-linejoin="round" stroke-miterlimit="10" stroke-opacity="1" fill="none" fill-rule="evenodd"/></g><g clip-path="url(#clip28)"><text fill="#595959" fill-opacity="1" font-family="Calibri,Calibri_MSFontService,sans-serif" font-style="normal" font-variant="normal" font-weight="400" font-stretch="normal" font-size="41" text-anchor="start" direction="ltr" writing-mode="lr-tb" unicode-bidi="normal" text-decoration="none" transform="matrix(1 0 0 1 3184 1083)">k8s</text></g><g clip-path="url(#clip29)"><path d="M3277 1073 3365 1073" stroke="#70AD47" stroke-width="10.3125" stroke-linecap="round" stroke-linejoin="round" stroke-miterlimit="10" stroke-opacity="1" fill="none" fill-rule="evenodd"/></g><g clip-path="url(#clip30)"><text fill="#595959" fill-opacity="1" font-family="Calibri,Calibri_MSFontService,sans-serif" font-style="normal" font-variant="normal" font-weight="400" font-stretch="normal" font-size="41" text-anchor="start" direction="ltr" writing-mode="lr-tb" unicode-bidi="normal" text-decoration="none" transform="matrix(1 0 0 1 3373.95 1083)">LEAD</text></g><rect x="2441.5" y="149.5" width="1650" height="990" stroke="#D9D9D9" stroke-width="3.4375" stroke-linecap="butt" stroke-linejoin="round" stroke-miterlimit="10" stroke-opacity="1" fill="none"/></g></svg>