<svg width="1659" height="995" xmlns="http://www.w3.org/2000/svg" xmlns:xlink="http://www.w3.org/1999/xlink" xml:space="preserve" overflow="hidden"><defs><clipPath id="clip0"><rect x="2424" y="1177" width="1659" height="995"/></clipPath><clipPath id="clip1"><rect x="2429" y="1180" width="1650" height="990"/></clipPath><clipPath id="clip2"><rect x="2429" y="1180" width="1650" height="990"/></clipPath><clipPath id="clip3"><rect x="2651" y="1230" width="1381" height="640"/></clipPath><clipPath id="clip4"><rect x="2651" y="1230" width="1381" height="640"/></clipPath><clipPath id="clip5"><rect x="2429" y="1180" width="1650" height="990"/></clipPath><clipPath id="clip6"><rect x="2429" y="1180" width="1650" height="990"/></clipPath><clipPath id="clip7"><rect x="2429" y="1180" width="1650" height="990"/></clipPath><clipPath id="clip8"><rect x="2429" y="1180" width="1650" height="990"/></clipPath><clipPath id="clip9"><rect x="2429" y="1180" width="1650" height="990"/></clipPath><clipPath id="clip10"><rect x="2429" y="1180" width="1650" height="990"/></clipPath><clipPath id="clip11"><rect x="2429" y="1180" width="1650" height="990"/></clipPath><clipPath id="clip12"><rect x="2429" y="1180" width="1650" height="990"/></clipPath><clipPath id="clip13"><rect x="2429" y="1180" width="1650" height="990"/></clipPath><clipPath id="clip14"><rect x="2429" y="1180" width="1650" height="990"/></clipPath><clipPath id="clip15"><rect x="2429" y="1180" width="1650" height="990"/></clipPath><clipPath id="clip16"><rect x="2429" y="1180" width="1650" height="990"/></clipPath><clipPath id="clip17"><rect x="2429" y="1180" width="1650" height="990"/></clipPath><clipPath id="clip18"><rect x="2429" y="1180" width="1650" height="990"/></clipPath><clipPath id="clip19"><rect x="2429" y="1180" width="1650" height="990"/></clipPath><clipPath id="clip20"><rect x="2429" y="1180" width="1650" height="990"/></clipPath><clipPath id="clip21"><rect x="2429" y="1180" width="1650" height="990"/></clipPath><clipPath id="clip22"><rect x="2429" y="1180" width="1650" height="990"/></clipPath><clipPath id="clip23"><rect x="2429" y="1180" width="1650" height="990"/></clipPath><clipPath id="clip24"><rect x="2429" y="1180" width="1650" height="990"/></clipPath><clipPath id="clip25"><rect x="2429" y="1180" width="1650" height="990"/></clipPath><clipPath id="clip26"><rect x="2429" y="1180" width="1650" height="990"/></clipPath></defs><g clip-path="url(#clip0)" transform="translate(-2424 -1177)"><rect x="2429" y="1180" width="1650" height="990" fill="#FFFFFF" fill-opacity="1"/><g clip-path="url(#clip1)"><path d="M2651.5 1760.56 4028.5 1760.56M2651.5 1654.55 4028.5 1654.55M2651.5 1548.55 4028.5 1548.55M2651.5 1442.55 4028.5 1442.55M2651.5 1336.54 4028.5 1336.54M2651.5 1230.5 4028.5 1230.5" stroke="#D9D9D9" stroke-width="3.4375" stroke-linecap="butt" stroke-linejoin="round" stroke-miterlimit="10" stroke-opacity="1" fill="none" fill-rule="nonzero"/></g><g clip-path="url(#clip2)"><path d="M2651.5 1867.5 4028.5 1867.5" stroke="#D9D9D9" stroke-width="3.4375" stroke-linecap="butt" stroke-linejoin="round" stroke-miterlimit="10" stroke-opacity="1" fill="none" fill-rule="evenodd"/></g><g clip-path="url(#clip3)"><path d="M2738 1480C2795.38 1461.15 2852.76 1439.39 2910.14 1423.46 2967.52 1407.53 3024.91 1397.68 3082.29 1384.42 3139.67 1371.16 3197.05 1352.62 3254.43 1343.89 3311.81 1335.16 3369.19 1335.5 3426.57 1332.03 3483.95 1328.56 3541.33 1325.08 3598.71 1323.1 3656.1 1321.11 3713.48 1320.8 3770.86 1320.12 3828.24 1319.43 3885.62 1319.37 3943 1319" stroke="#FFC000" stroke-width="10.3125" stroke-linecap="round" stroke-linejoin="round" stroke-miterlimit="10" stroke-opacity="1" fill="none" fill-rule="nonzero"/></g><g clip-path="url(#clip4)"><path d="M2738 1466C2795.38 1455.06 2852.76 1440.74 2910.14 1433.18 2967.52 1425.62 3024.91 1425.66 3082.29 1420.62 3139.67 1415.58 3197.05 1407.86 3254.43 1402.95 3311.81 1398.03 3369.19 1394.14 3426.57 1391.13 3483.95 1388.11 3541.33 1386.14 3598.71 1384.85 3656.1 1383.55 3713.48 1383.68 3770.86 1383.37 3828.24 1383.06 3885.62 1383.12 3943 1383" stroke="#70AD47" stroke-width="10.3125" stroke-linecap="round" stroke-linejoin="round" stroke-miterlimit="10" stroke-opacity="1" fill="none" fill-rule="nonzero"/></g><g clip-path="url(#clip5)"><text fill="#595959" fill-opacity="1" font-family="Calibri,Calibri_MSFontService,sans-serif" font-style="normal" font-variant="normal" font-weight="400" font-stretch="normal" font-size="41" text-anchor="start" direction="ltr" writing-mode="lr-tb" unicode-bidi="normal" text-decoration="none" transform="matrix(1 0 0 1 2592.75 1877)">0</text></g><g clip-path="url(#clip6)"><text fill="#595959" fill-opacity="1" font-family="Calibri,Calibri_MSFontService,sans-serif" font-style="normal" font-variant="normal" font-weight="400" font-stretch="normal" font-size="41" text-anchor="start" direction="ltr" writing-mode="lr-tb" unicode-bidi="normal" text-decoration="none" transform="matrix(1 0 0 1 2571.85 1771)">20</text></g><g clip-path="url(#clip7)"><text fill="#595959" fill-opacity="1" font-family="Calibri,Calibri_MSFontService,sans-serif" font-style="normal" font-variant="normal" font-weight="400" font-stretch="normal" font-size="41" text-anchor="start" direction="ltr" writing-mode="lr-tb" unicode-bidi="normal" text-decoration="none" transform="matrix(1 0 0 1 2571.85 1665)">40</text></g><g clip-path="url(#clip8)"><text fill="#595959" fill-opacity="1" font-family="Calibri,Calibri_MSFontService,sans-serif" font-style="normal" font-variant="normal" font-weight="400" font-stretch="normal" font-size="41" text-anchor="start" direction="ltr" writing-mode="lr-tb" unicode-bidi="normal" text-decoration="none" transform="matrix(1 0 0 1 2571.85 1559)">60</text></g><g clip-path="url(#clip9)"><text fill="#595959" fill-opacity="1" font-family="Calibri,Calibri_MSFontService,sans-serif" font-style="normal" font-variant="normal" font-weight="400" font-stretch="normal" font-size="41" text-anchor="start" direction="ltr" writing-mode="lr-tb" unicode-bidi="normal" text-decoration="none" transform="matrix(1 0 0 1 2571.85 1453)">80</text></g><g clip-path="url(#clip10)"><text fill="#595959" fill-opacity="1" font-family="Calibri,Calibri_MSFontService,sans-serif" font-style="normal" font-variant="normal" font-weight="400" font-stretch="normal" font-size="41" text-anchor="start" direction="ltr" writing-mode="lr-tb" unicode-bidi="normal" text-decoration="none" transform="matrix(1 0 0 1 2550.95 1347)">100</text></g><g clip-path="url(#clip11)"><text fill="#595959" fill-opacity="1" font-family="Calibri,Calibri_MSFontService,sans-serif" font-style="normal" font-variant="normal" font-weight="400" font-stretch="normal" font-size="41" text-anchor="start" direction="ltr" writing-mode="lr-tb" unicode-bidi="normal" text-decoration="none" transform="matrix(1 0 0 1 2550.95 1241)">120</text></g><g clip-path="url(#clip12)"><text fill="#595959" fill-opacity="1" font-family="Calibri,Calibri_MSFontService,sans-serif" font-style="normal" font-variant="normal" font-weight="400" font-stretch="normal" font-size="41" text-anchor="start" direction="ltr" writing-mode="lr-tb" unicode-bidi="normal" text-decoration="none" transform="matrix(1 0 0 1 2702.32 1932)">50%</text></g><g clip-path="url(#clip13)"><text fill="#595959" fill-opacity="1" font-family="Calibri,Calibri_MSFontService,sans-serif" font-style="normal" font-variant="normal" font-weight="400" font-stretch="normal" font-size="41" text-anchor="start" direction="ltr" writing-mode="lr-tb" unicode-bidi="normal" text-decoration="none" transform="matrix(1 0 0 1 2874.42 1932)">75%</text></g><g clip-path="url(#clip14)"><text fill="#595959" fill-opacity="1" font-family="Calibri,Calibri_MSFontService,sans-serif" font-style="normal" font-variant="normal" font-weight="400" font-stretch="normal" font-size="41" text-anchor="start" direction="ltr" writing-mode="lr-tb" unicode-bidi="normal" text-decoration="none" transform="matrix(1 0 0 1 3046.53 1932)">90%</text></g><g clip-path="url(#clip15)"><text fill="#595959" fill-opacity="1" font-family="Calibri,Calibri_MSFontService,sans-serif" font-style="normal" font-variant="normal" font-weight="400" font-stretch="normal" font-size="41" text-anchor="start" direction="ltr" writing-mode="lr-tb" unicode-bidi="normal" text-decoration="none" transform="matrix(1 0 0 1 3218.63 1932)">99%</text></g><g clip-path="url(#clip16)"><text fill="#595959" fill-opacity="1" font-family="Calibri,Calibri_MSFontService,sans-serif" font-style="normal" font-variant="normal" font-weight="400" font-stretch="normal" font-size="41" text-anchor="start" direction="ltr" writing-mode="lr-tb" unicode-bidi="normal" text-decoration="none" transform="matrix(1 0 0 1 3364.63 1932)">99.90%</text></g><g clip-path="url(#clip17)"><text fill="#595959" fill-opacity="1" font-family="Calibri,Calibri_MSFontService,sans-serif" font-style="normal" font-variant="normal" font-weight="400" font-stretch="normal" font-size="41" text-anchor="start" direction="ltr" writing-mode="lr-tb" unicode-bidi="normal" text-decoration="none" transform="matrix(1 0 0 1 3536.74 1932)">99.99%</text></g><g clip-path="url(#clip18)"><text fill="#595959" fill-opacity="1" font-family="Calibri,Calibri_MSFontService,sans-serif" font-style="normal" font-variant="normal" font-weight="400" font-stretch="normal" font-size="41" text-anchor="start" direction="ltr" writing-mode="lr-tb" unicode-bidi="normal" text-decoration="none" transform="matrix(1 0 0 1 3698.39 1932)">99.999%</text></g><g clip-path="url(#clip19)"><text fill="#595959" fill-opacity="1" font-family="Calibri,Calibri_MSFontService,sans-serif" font-style="normal" font-variant="normal" font-weight="400" font-stretch="normal" font-size="41" text-anchor="start" direction="ltr" writing-mode="lr-tb" unicode-bidi="normal" text-decoration="none" transform="matrix(1 0 0 1 3896.6 1932)">100%</text></g><g clip-path="url(#clip20)"><text fill="#595959" fill-opacity="1" font-family="Times New Roman,Times New Roman_MSFontService,sans-serif" font-style="normal" font-variant="normal" font-weight="400" font-stretch="normal" font-size="46" text-anchor="start" direction="ltr" writing-mode="lr-tb" unicode-bidi="normal" text-decoration="none" transform="matrix(6.12323e-17 -1 1 6.12323e-17 2527.46 1656)">latancy (</text></g><g clip-path="url(#clip21)"><text fill="#595959" fill-opacity="1" font-family="Times New Roman,Times New Roman_MSFontService,sans-serif" font-style="normal" font-variant="normal" font-weight="400" font-stretch="normal" font-size="37" text-anchor="start" direction="ltr" writing-mode="lr-tb" unicode-bidi="normal" text-decoration="none" transform="matrix(6.12323e-17 -1 1 6.12323e-17 2527.46 1497)">ms)</text></g><g clip-path="url(#clip22)"><text fill="#595959" fill-opacity="1" font-family="Times New Roman,Times New Roman_MSFontService,sans-serif" font-style="normal" font-variant="normal" font-weight="400" font-stretch="normal" font-size="46" text-anchor="start" direction="ltr" writing-mode="lr-tb" unicode-bidi="normal" text-decoration="none" transform="matrix(1 0 0 1 3257.58 1998)">Requests</text></g><g clip-path="url(#clip23)"><path d="M3075 2104 3163 2104" stroke="#FFC000" stroke-width="10.3125" stroke-linecap="round" stroke-linejoin="round" stroke-miterlimit="10" stroke-opacity="1" fill="none" fill-rule="evenodd"/></g><g clip-path="url(#clip24)"><text fill="#595959" fill-opacity="1" font-family="Calibri,Calibri_MSFontService,sans-serif" font-style="normal" font-variant="normal" font-weight="400" font-stretch="normal" font-size="41" text-anchor="start" direction="ltr" writing-mode="lr-tb" unicode-bidi="normal" text-decoration="none" transform="matrix(1 0 0 1 3172.54 2114)">k8s</text></g><g clip-path="url(#clip25)"><path d="M3265 2104 3353 2104" stroke="#70AD47" stroke-width="10.3125" stroke-linecap="round" stroke-linejoin="round" stroke-miterlimit="10" stroke-opacity="1" fill="none" fill-rule="evenodd"/></g><g clip-path="url(#clip26)"><text fill="#595959" fill-opacity="1" font-family="Calibri,Calibri_MSFontService,sans-serif" font-style="normal" font-variant="normal" font-weight="400" font-stretch="normal" font-size="41" text-anchor="start" direction="ltr" writing-mode="lr-tb" unicode-bidi="normal" text-decoration="none" transform="matrix(1 0 0 1 3362.49 2114)">LEAD</text></g><rect x="2429.5" y="1180.5" width="1650" height="990" stroke="#D9D9D9" stroke-width="3.4375" stroke-linecap="butt" stroke-linejoin="round" stroke-miterlimit="10" stroke-opacity="1" fill="none"/></g></svg>