<svg width="1829" height="999" xmlns="http://www.w3.org/2000/svg" xmlns:xlink="http://www.w3.org/1999/xlink" xml:space="preserve" overflow="hidden"><defs><clipPath id="clip0"><rect x="4143" y="1173" width="1829" height="999"/></clipPath><clipPath id="clip1"><rect x="4145" y="1175" width="1824" height="990"/></clipPath><clipPath id="clip2"><rect x="4145" y="1175" width="1824" height="990"/></clipPath><clipPath id="clip3"><rect x="4347" y="1226" width="1575" height="639"/></clipPath><clipPath id="clip4"><rect x="4347" y="1226" width="1575" height="639"/></clipPath><clipPath id="clip5"><rect x="4145" y="1175" width="1824" height="990"/></clipPath><clipPath id="clip6"><rect x="4145" y="1175" width="1824" height="990"/></clipPath><clipPath id="clip7"><rect x="4145" y="1175" width="1824" height="990"/></clipPath><clipPath id="clip8"><rect x="4145" y="1175" width="1824" height="990"/></clipPath><clipPath id="clip9"><rect x="4145" y="1175" width="1824" height="990"/></clipPath><clipPath id="clip10"><rect x="4145" y="1175" width="1824" height="990"/></clipPath><clipPath id="clip11"><rect x="4145" y="1175" width="1824" height="990"/></clipPath><clipPath id="clip12"><rect x="4145" y="1175" width="1824" height="990"/></clipPath><clipPath id="clip13"><rect x="4145" y="1175" width="1824" height="990"/></clipPath><clipPath id="clip14"><rect x="4145" y="1175" width="1824" height="990"/></clipPath><clipPath id="clip15"><rect x="4145" y="1175" width="1824" height="990"/></clipPath><clipPath id="clip16"><rect x="4145" y="1175" width="1824" height="990"/></clipPath><clipPath id="clip17"><rect x="4145" y="1175" width="1824" height="990"/></clipPath><clipPath id="clip18"><rect x="4145" y="1175" width="1824" height="990"/></clipPath><clipPath id="clip19"><rect x="4145" y="1175" width="1824" height="990"/></clipPath><clipPath id="clip20"><rect x="4145" y="1175" width="1824" height="990"/></clipPath><clipPath id="clip21"><rect x="4145" y="1175" width="1824" height="990"/></clipPath><clipPath id="clip22"><rect x="4145" y="1175" width="1824" height="990"/></clipPath><clipPath id="clip23"><rect x="4145" y="1175" width="1824" height="990"/></clipPath><clipPath id="clip24"><rect x="4145" y="1175" width="1824" height="990"/></clipPath><clipPath id="clip25"><rect x="4145" y="1175" width="1824" height="990"/></clipPath><clipPath id="clip26"><rect x="4145" y="1175" width="1824" height="990"/></clipPath><clipPath id="clip27"><rect x="4145" y="1175" width="1824" height="990"/></clipPath></defs><g clip-path="url(#clip0)" transform="translate(-4143 -1173)"><rect x="4146" y="1176" width="1824" height="990" fill="#FFFFFF" fill-opacity="1"/><g clip-path="url(#clip1)"><path d="M4347.5 1756.56 5919.5 1756.56M4347.5 1650.55 5919.5 1650.55M4347.5 1544.55 5919.5 1544.55M4347.5 1438.55 5919.5 1438.55M4347.5 1332.54 5919.5 1332.54M4347.5 1226.5 5919.5 1226.5" stroke="#D9D9D9" stroke-width="3.4375" stroke-linecap="butt" stroke-linejoin="round" stroke-miterlimit="10" stroke-opacity="1" fill="none" fill-rule="nonzero"/></g><g clip-path="url(#clip2)"><path d="M4347.5 1862.5 5919.5 1862.5" stroke="#D9D9D9" stroke-width="3.4375" stroke-linecap="butt" stroke-linejoin="round" stroke-miterlimit="10" stroke-opacity="1" fill="none" fill-rule="evenodd"/></g><g clip-path="url(#clip3)"><path d="M4446 1571C4511.48 1523.32 4576.95 1465.99 4642.43 1427.95 4707.9 1389.91 4773.38 1365.42 4838.86 1342.76 4904.33 1320.1 4969.81 1301.7 5035.29 1292 5100.76 1282.31 5166.24 1286.19 5231.71 1284.59 5297.19 1282.98 5362.67 1282.92 5428.14 1282.36 5493.62 1281.79 5559.09 1281.39 5624.57 1281.19 5690.05 1281 5755.52 1281.19 5821 1281.19" stroke="#FFC000" stroke-width="10.3125" stroke-linecap="round" stroke-linejoin="round" stroke-miterlimit="10" stroke-opacity="1" fill="none" fill-rule="nonzero"/></g><g clip-path="url(#clip4)"><path d="M4446 1694C4511.48 1675.22 4576.95 1648.85 4642.43 1637.66 4707.9 1626.48 4773.38 1630.48 4838.86 1626.91 4904.33 1623.34 4969.81 1619.03 5035.29 1616.26 5100.76 1613.49 5166.24 1612.87 5231.71 1610.29 5297.19 1607.72 5362.67 1603.35 5428.14 1600.82 5493.62 1598.28 5559.09 1596.13 5624.57 1595.07 5690.05 1594 5755.52 1594.64 5821 1594.43" stroke="#70AD47" stroke-width="10.3125" stroke-linecap="round" stroke-linejoin="round" stroke-miterlimit="10" stroke-opacity="1" fill="none" fill-rule="nonzero"/></g><g clip-path="url(#clip5)"><text fill="#595959" fill-opacity="1" font-family="Calibri,Calibri_MSFontService,sans-serif" font-style="normal" font-variant="normal" font-weight="400" font-stretch="normal" font-size="41" text-anchor="start" direction="ltr" writing-mode="lr-tb" unicode-bidi="normal" text-decoration="none" transform="matrix(1 0 0 1 4288.3 1873)">0</text></g><g clip-path="url(#clip6)"><text fill="#595959" fill-opacity="1" font-family="Calibri,Calibri_MSFontService,sans-serif" font-style="normal" font-variant="normal" font-weight="400" font-stretch="normal" font-size="41" text-anchor="start" direction="ltr" writing-mode="lr-tb" unicode-bidi="normal" text-decoration="none" transform="matrix(1 0 0 1 4267.4 1766)">10</text></g><g clip-path="url(#clip7)"><text fill="#595959" fill-opacity="1" font-family="Calibri,Calibri_MSFontService,sans-serif" font-style="normal" font-variant="normal" font-weight="400" font-stretch="normal" font-size="41" text-anchor="start" direction="ltr" writing-mode="lr-tb" unicode-bidi="normal" text-decoration="none" transform="matrix(1 0 0 1 4267.4 1660)">20</text></g><g clip-path="url(#clip8)"><text fill="#595959" fill-opacity="1" font-family="Calibri,Calibri_MSFontService,sans-serif" font-style="normal" font-variant="normal" font-weight="400" font-stretch="normal" font-size="41" text-anchor="start" direction="ltr" writing-mode="lr-tb" unicode-bidi="normal" text-decoration="none" transform="matrix(1 0 0 1 4267.4 1554)">30</text></g><g clip-path="url(#clip9)"><text fill="#595959" fill-opacity="1" font-family="Calibri,Calibri_MSFontService,sans-serif" font-style="normal" font-variant="normal" font-weight="400" font-stretch="normal" font-size="41" text-anchor="start" direction="ltr" writing-mode="lr-tb" unicode-bidi="normal" text-decoration="none" transform="matrix(1 0 0 1 4267.4 1448)">40</text></g><g clip-path="url(#clip10)"><text fill="#595959" fill-opacity="1" font-family="Calibri,Calibri_MSFontService,sans-serif" font-style="normal" font-variant="normal" font-weight="400" font-stretch="normal" font-size="41" text-anchor="start" direction="ltr" writing-mode="lr-tb" unicode-bidi="normal" text-decoration="none" transform="matrix(1 0 0 1 4267.4 1342)">50</text></g><g clip-path="url(#clip11)"><text fill="#595959" fill-opacity="1" font-family="Calibri,Calibri_MSFontService,sans-serif" font-style="normal" font-variant="normal" font-weight="400" font-stretch="normal" font-size="41" text-anchor="start" direction="ltr" writing-mode="lr-tb" unicode-bidi="normal" text-decoration="none" transform="matrix(1 0 0 1 4267.4 1236)">60</text></g><g clip-path="url(#clip12)"><text fill="#595959" fill-opacity="1" font-family="Calibri,Calibri_MSFontService,sans-serif" font-style="normal" font-variant="normal" font-weight="400" font-stretch="normal" font-size="41" text-anchor="start" direction="ltr" writing-mode="lr-tb" unicode-bidi="normal" text-decoration="none" transform="matrix(1 0 0 1 4410.07 1928)">50%</text></g><g clip-path="url(#clip13)"><text fill="#595959" fill-opacity="1" font-family="Calibri,Calibri_MSFontService,sans-serif" font-style="normal" font-variant="normal" font-weight="400" font-stretch="normal" font-size="41" text-anchor="start" direction="ltr" writing-mode="lr-tb" unicode-bidi="normal" text-decoration="none" transform="matrix(1 0 0 1 4606.56 1928)">75%</text></g><g clip-path="url(#clip14)"><text fill="#595959" fill-opacity="1" font-family="Calibri,Calibri_MSFontService,sans-serif" font-style="normal" font-variant="normal" font-weight="400" font-stretch="normal" font-size="41" text-anchor="start" direction="ltr" writing-mode="lr-tb" unicode-bidi="normal" text-decoration="none" transform="matrix(1 0 0 1 4803.04 1928)">90%</text></g><g clip-path="url(#clip15)"><text fill="#595959" fill-opacity="1" font-family="Calibri,Calibri_MSFontService,sans-serif" font-style="normal" font-variant="normal" font-weight="400" font-stretch="normal" font-size="41" text-anchor="start" direction="ltr" writing-mode="lr-tb" unicode-bidi="normal" text-decoration="none" transform="matrix(1 0 0 1 4999.53 1928)">99%</text></g><g clip-path="url(#clip16)"><text fill="#595959" fill-opacity="1" font-family="Calibri,Calibri_MSFontService,sans-serif" font-style="normal" font-variant="normal" font-weight="400" font-stretch="normal" font-size="41" text-anchor="start" direction="ltr" writing-mode="lr-tb" unicode-bidi="normal" text-decoration="none" transform="matrix(1 0 0 1 5169.92 1928)">99.90%</text></g><g clip-path="url(#clip17)"><text fill="#595959" fill-opacity="1" font-family="Calibri,Calibri_MSFontService,sans-serif" font-style="normal" font-variant="normal" font-weight="400" font-stretch="normal" font-size="41" text-anchor="start" direction="ltr" writing-mode="lr-tb" unicode-bidi="normal" text-decoration="none" transform="matrix(1 0 0 1 5366.41 1928)">99.99%</text></g><g clip-path="url(#clip18)"><text fill="#595959" fill-opacity="1" font-family="Calibri,Calibri_MSFontService,sans-serif" font-style="normal" font-variant="normal" font-weight="400" font-stretch="normal" font-size="41" text-anchor="start" direction="ltr" writing-mode="lr-tb" unicode-bidi="normal" text-decoration="none" transform="matrix(1 0 0 1 5552.44 1928)">99.999%</text></g><g clip-path="url(#clip19)"><text fill="#595959" fill-opacity="1" font-family="Calibri,Calibri_MSFontService,sans-serif" font-style="normal" font-variant="normal" font-weight="400" font-stretch="normal" font-size="41" text-anchor="start" direction="ltr" writing-mode="lr-tb" unicode-bidi="normal" text-decoration="none" transform="matrix(1 0 0 1 5775.03 1928)">100%</text></g><g clip-path="url(#clip20)"><text fill="#595959" fill-opacity="1" font-family="Times New Roman,Times New Roman_MSFontService,sans-serif" font-style="normal" font-variant="normal" font-weight="400" font-stretch="normal" font-size="46" text-anchor="start" direction="ltr" writing-mode="lr-tb" unicode-bidi="normal" text-decoration="none" transform="matrix(6.12323e-17 -1 1 6.12323e-17 4243.91 1653)">latancy (</text></g><g clip-path="url(#clip21)"><text fill="#595959" fill-opacity="1" font-family="Times New Roman,Times New Roman_MSFontService,sans-serif" font-style="normal" font-variant="normal" font-weight="400" font-stretch="normal" font-size="37" text-anchor="start" direction="ltr" writing-mode="lr-tb" unicode-bidi="normal" text-decoration="none" transform="matrix(6.12323e-17 -1 1 6.12323e-17 4243.91 1494)">ms</text></g><g clip-path="url(#clip22)"><text fill="#595959" fill-opacity="1" font-family="Times New Roman,Times New Roman_MSFontService,sans-serif" font-style="normal" font-variant="normal" font-weight="400" font-stretch="normal" font-size="46" text-anchor="start" direction="ltr" writing-mode="lr-tb" unicode-bidi="normal" text-decoration="none" transform="matrix(6.12323e-17 -1 1 6.12323e-17 4243.91 1451)">)</text></g><g clip-path="url(#clip23)"><text fill="#595959" fill-opacity="1" font-family="Times New Roman,Times New Roman_MSFontService,sans-serif" font-style="normal" font-variant="normal" font-weight="400" font-stretch="normal" font-size="46" text-anchor="start" direction="ltr" writing-mode="lr-tb" unicode-bidi="normal" text-decoration="none" transform="matrix(1 0 0 1 5050.67 1994)">Requests</text></g><g clip-path="url(#clip24)"><path d="M4879 2099 4967 2099" stroke="#FFC000" stroke-width="10.3125" stroke-linecap="round" stroke-linejoin="round" stroke-miterlimit="10" stroke-opacity="1" fill="none" fill-rule="evenodd"/></g><g clip-path="url(#clip25)"><text fill="#595959" fill-opacity="1" font-family="Calibri,Calibri_MSFontService,sans-serif" font-style="normal" font-variant="normal" font-weight="400" font-stretch="normal" font-size="41" text-anchor="start" direction="ltr" writing-mode="lr-tb" unicode-bidi="normal" text-decoration="none" transform="matrix(1 0 0 1 4976.08 2110)">k8s</text></g><g clip-path="url(#clip26)"><path d="M5069 2099 5157 2099" stroke="#70AD47" stroke-width="10.3125" stroke-linecap="round" stroke-linejoin="round" stroke-miterlimit="10" stroke-opacity="1" fill="none" fill-rule="evenodd"/></g><g clip-path="url(#clip27)"><text fill="#595959" fill-opacity="1" font-family="Calibri,Calibri_MSFontService,sans-serif" font-style="normal" font-variant="normal" font-weight="400" font-stretch="normal" font-size="41" text-anchor="start" direction="ltr" writing-mode="lr-tb" unicode-bidi="normal" text-decoration="none" transform="matrix(1 0 0 1 5166.03 2110)">LEAD</text></g><rect x="4146.5" y="1176.5" width="1824" height="990" stroke="#D9D9D9" stroke-width="3.4375" stroke-linecap="butt" stroke-linejoin="round" stroke-miterlimit="10" stroke-opacity="1" fill="none"/></g></svg>