<svg width="1655" height="999" xmlns="http://www.w3.org/2000/svg" xmlns:xlink="http://www.w3.org/1999/xlink" xml:space="preserve" overflow="hidden"><defs><clipPath id="clip0"><rect x="6375" y="6783" width="1655" height="999"/></clipPath><clipPath id="clip1"><rect x="6379" y="6788" width="1649" height="990"/></clipPath><clipPath id="clip2"><rect x="6379" y="6788" width="1649" height="990"/></clipPath><clipPath id="clip3"><rect x="6379" y="6788" width="1649" height="990"/></clipPath><clipPath id="clip4"><rect x="6379" y="6788" width="1649" height="990"/></clipPath><clipPath id="clip5"><rect x="6623" y="6838" width="1358" height="640"/></clipPath><clipPath id="clip6"><rect x="6623" y="6838" width="1358" height="640"/></clipPath><clipPath id="clip7"><rect x="6379" y="6788" width="1649" height="990"/></clipPath><clipPath id="clip8"><rect x="6379" y="6788" width="1649" height="990"/></clipPath><clipPath id="clip9"><rect x="6379" y="6788" width="1649" height="990"/></clipPath><clipPath id="clip10"><rect x="6379" y="6788" width="1649" height="990"/></clipPath><clipPath id="clip11"><rect x="6379" y="6788" width="1649" height="990"/></clipPath><clipPath id="clip12"><rect x="6379" y="6788" width="1649" height="990"/></clipPath><clipPath id="clip13"><rect x="6379" y="6788" width="1649" height="990"/></clipPath><clipPath id="clip14"><rect x="6379" y="6788" width="1649" height="990"/></clipPath><clipPath id="clip15"><rect x="6379" y="6788" width="1649" height="990"/></clipPath><clipPath id="clip16"><rect x="6379" y="6788" width="1649" height="990"/></clipPath><clipPath id="clip17"><rect x="6379" y="6788" width="1649" height="990"/></clipPath><clipPath id="clip18"><rect x="6379" y="6788" width="1649" height="990"/></clipPath><clipPath id="clip19"><rect x="6379" y="6788" width="1649" height="990"/></clipPath><clipPath id="clip20"><rect x="6379" y="6788" width="1649" height="990"/></clipPath><clipPath id="clip21"><rect x="6379" y="6788" width="1649" height="990"/></clipPath><clipPath id="clip22"><rect x="6379" y="6788" width="1649" height="990"/></clipPath><clipPath id="clip23"><rect x="6379" y="6788" width="1649" height="990"/></clipPath><clipPath id="clip24"><rect x="6379" y="6788" width="1649" height="990"/></clipPath><clipPath id="clip25"><rect x="6379" y="6788" width="1649" height="990"/></clipPath><clipPath id="clip26"><rect x="6379" y="6788" width="1649" height="990"/></clipPath><clipPath id="clip27"><rect x="6379" y="6788" width="1649" height="990"/></clipPath><clipPath id="clip28"><rect x="6379" y="6788" width="1649" height="990"/></clipPath><clipPath id="clip29"><rect x="6379" y="6788" width="1649" height="990"/></clipPath><clipPath id="clip30"><rect x="6379" y="6788" width="1649" height="990"/></clipPath><clipPath id="clip31"><rect x="6379" y="6788" width="1649" height="990"/></clipPath></defs><g clip-path="url(#clip0)" transform="translate(-6375 -6783)"><rect x="6379" y="6788" width="1649" height="990" fill="#FFFFFF" fill-opacity="1"/><g clip-path="url(#clip1)"><path d="M6623.5 7395.74 7977.5 7395.74M6623.5 7315.74 7977.5 7315.74M6623.5 7236.74 7977.5 7236.74M6623.5 7156.73 7977.5 7156.73M6623.5 7076.73 7977.5 7076.73M6623.5 6997.73 7977.5 6997.73M6623.5 6917.73 7977.5 6917.73M6623.5 6838.5 7977.5 6838.5" stroke="#D9D9D9" stroke-width="3.4375" stroke-linecap="butt" stroke-linejoin="round" stroke-miterlimit="10" stroke-opacity="1" fill="none" fill-rule="nonzero"/></g><g clip-path="url(#clip2)"><path d="M6792.72 6838.5 6792.72 7474.5M6961.73 6838.5 6961.73 7474.5M7130.73 6838.5 7130.73 7474.5M7300.74 6838.5 7300.74 7474.5M7469.75 6838.5 7469.75 7474.5M7638.75 6838.5 7638.75 7474.5M7808.76 6838.5 7808.76 7474.5M7977.5 6838.5 7977.5 7474.5" stroke="#D9D9D9" stroke-width="3.4375" stroke-linecap="butt" stroke-linejoin="round" stroke-miterlimit="10" stroke-opacity="1" fill="none" fill-rule="nonzero"/></g><g clip-path="url(#clip3)"><path d="M0 0 0.000360892 636" stroke="#BFBFBF" stroke-width="3.4375" stroke-linecap="butt" stroke-linejoin="round" stroke-miterlimit="10" stroke-opacity="1" fill="none" fill-rule="evenodd" transform="matrix(1 0 0 -1 6623.5 7474.5)"/></g><g clip-path="url(#clip4)"><path d="M6623.5 7474.5 7977.5 7474.5" stroke="#BFBFBF" stroke-width="3.4375" stroke-linecap="butt" stroke-linejoin="round" stroke-miterlimit="10" stroke-opacity="1" fill="none" fill-rule="evenodd"/></g><g clip-path="url(#clip5)"><path d="M6707.5 7031.5 6876.73 6978.73 7046.73 6953.73 7215.74 6930.73 7384.74 6910.73 7554.75 6897.73 7723.75 6894.73 7893.5 6893.5" stroke="#FFC000" stroke-width="6.875" stroke-linecap="round" stroke-linejoin="round" stroke-miterlimit="10" stroke-opacity="1" fill="none" fill-rule="nonzero"/></g><g clip-path="url(#clip6)"><path d="M6707.5 7114.5 6876.73 7084.73 7046.73 7072.73 7215.74 7056.73 7384.74 7046.73 7554.75 7040.73 7723.75 7039.73 7893.5 7039.5" stroke="#70AD47" stroke-width="6.875" stroke-linecap="round" stroke-linejoin="round" stroke-miterlimit="10" stroke-opacity="1" fill="none" fill-rule="nonzero"/></g><g clip-path="url(#clip7)"><text fill="#595959" fill-opacity="1" font-family="Calibri,Calibri_MSFontService,sans-serif" font-style="normal" font-variant="normal" font-weight="400" font-stretch="normal" font-size="41" text-anchor="start" direction="ltr" writing-mode="lr-tb" unicode-bidi="normal" text-decoration="none" transform="matrix(1 0 0 1 6563.85 7485)">0</text></g><g clip-path="url(#clip8)"><text fill="#595959" fill-opacity="1" font-family="Calibri,Calibri_MSFontService,sans-serif" font-style="normal" font-variant="normal" font-weight="400" font-stretch="normal" font-size="41" text-anchor="start" direction="ltr" writing-mode="lr-tb" unicode-bidi="normal" text-decoration="none" transform="matrix(1 0 0 1 6501.15 7405)">1000</text></g><g clip-path="url(#clip9)"><text fill="#595959" fill-opacity="1" font-family="Calibri,Calibri_MSFontService,sans-serif" font-style="normal" font-variant="normal" font-weight="400" font-stretch="normal" font-size="41" text-anchor="start" direction="ltr" writing-mode="lr-tb" unicode-bidi="normal" text-decoration="none" transform="matrix(1 0 0 1 6501.15 7326)">2000</text></g><g clip-path="url(#clip10)"><text fill="#595959" fill-opacity="1" font-family="Calibri,Calibri_MSFontService,sans-serif" font-style="normal" font-variant="normal" font-weight="400" font-stretch="normal" font-size="41" text-anchor="start" direction="ltr" writing-mode="lr-tb" unicode-bidi="normal" text-decoration="none" transform="matrix(1 0 0 1 6501.15 7246)">3000</text></g><g clip-path="url(#clip11)"><text fill="#595959" fill-opacity="1" font-family="Calibri,Calibri_MSFontService,sans-serif" font-style="normal" font-variant="normal" font-weight="400" font-stretch="normal" font-size="41" text-anchor="start" direction="ltr" writing-mode="lr-tb" unicode-bidi="normal" text-decoration="none" transform="matrix(1 0 0 1 6501.15 7167)">4000</text></g><g clip-path="url(#clip12)"><text fill="#595959" fill-opacity="1" font-family="Calibri,Calibri_MSFontService,sans-serif" font-style="normal" font-variant="normal" font-weight="400" font-stretch="normal" font-size="41" text-anchor="start" direction="ltr" writing-mode="lr-tb" unicode-bidi="normal" text-decoration="none" transform="matrix(1 0 0 1 6501.15 7087)">5000</text></g><g clip-path="url(#clip13)"><text fill="#595959" fill-opacity="1" font-family="Calibri,Calibri_MSFontService,sans-serif" font-style="normal" font-variant="normal" font-weight="400" font-stretch="normal" font-size="41" text-anchor="start" direction="ltr" writing-mode="lr-tb" unicode-bidi="normal" text-decoration="none" transform="matrix(1 0 0 1 6501.15 7008)">6000</text></g><g clip-path="url(#clip14)"><text fill="#595959" fill-opacity="1" font-family="Calibri,Calibri_MSFontService,sans-serif" font-style="normal" font-variant="normal" font-weight="400" font-stretch="normal" font-size="41" text-anchor="start" direction="ltr" writing-mode="lr-tb" unicode-bidi="normal" text-decoration="none" transform="matrix(1 0 0 1 6501.15 6928)">7000</text></g><g clip-path="url(#clip15)"><text fill="#595959" fill-opacity="1" font-family="Calibri,Calibri_MSFontService,sans-serif" font-style="normal" font-variant="normal" font-weight="400" font-stretch="normal" font-size="41" text-anchor="start" direction="ltr" writing-mode="lr-tb" unicode-bidi="normal" text-decoration="none" transform="matrix(1 0 0 1 6501.15 6849)">8000</text></g><g clip-path="url(#clip16)"><text fill="#595959" fill-opacity="1" font-family="Calibri,Calibri_MSFontService,sans-serif" font-style="normal" font-variant="normal" font-weight="400" font-stretch="normal" font-size="41" text-anchor="start" direction="ltr" writing-mode="lr-tb" unicode-bidi="normal" text-decoration="none" transform="matrix(1 0 0 1 6672.04 7540)">50%</text></g><g clip-path="url(#clip17)"><text fill="#595959" fill-opacity="1" font-family="Calibri,Calibri_MSFontService,sans-serif" font-style="normal" font-variant="normal" font-weight="400" font-stretch="normal" font-size="41" text-anchor="start" direction="ltr" writing-mode="lr-tb" unicode-bidi="normal" text-decoration="none" transform="matrix(1 0 0 1 6841.38 7540)">75%</text></g><g clip-path="url(#clip18)"><text fill="#595959" fill-opacity="1" font-family="Calibri,Calibri_MSFontService,sans-serif" font-style="normal" font-variant="normal" font-weight="400" font-stretch="normal" font-size="41" text-anchor="start" direction="ltr" writing-mode="lr-tb" unicode-bidi="normal" text-decoration="none" transform="matrix(1 0 0 1 7010.71 7540)">90%</text></g><g clip-path="url(#clip19)"><text fill="#595959" fill-opacity="1" font-family="Calibri,Calibri_MSFontService,sans-serif" font-style="normal" font-variant="normal" font-weight="400" font-stretch="normal" font-size="41" text-anchor="start" direction="ltr" writing-mode="lr-tb" unicode-bidi="normal" text-decoration="none" transform="matrix(1 0 0 1 7180.05 7540)">99%</text></g><g clip-path="url(#clip20)"><text fill="#595959" fill-opacity="1" font-family="Calibri,Calibri_MSFontService,sans-serif" font-style="normal" font-variant="normal" font-weight="400" font-stretch="normal" font-size="41" text-anchor="start" direction="ltr" writing-mode="lr-tb" unicode-bidi="normal" text-decoration="none" transform="matrix(1 0 0 1 7323.29 7540)">99.90%</text></g><g clip-path="url(#clip21)"><text fill="#595959" fill-opacity="1" font-family="Calibri,Calibri_MSFontService,sans-serif" font-style="normal" font-variant="normal" font-weight="400" font-stretch="normal" font-size="41" text-anchor="start" direction="ltr" writing-mode="lr-tb" unicode-bidi="normal" text-decoration="none" transform="matrix(1 0 0 1 7492.63 7540)">99.99%</text></g><g clip-path="url(#clip22)"><text fill="#595959" fill-opacity="1" font-family="Calibri,Calibri_MSFontService,sans-serif" font-style="normal" font-variant="normal" font-weight="400" font-stretch="normal" font-size="41" text-anchor="start" direction="ltr" writing-mode="lr-tb" unicode-bidi="normal" text-decoration="none" transform="matrix(1 0 0 1 7651.51 7540)">99.999%</text></g><g clip-path="url(#clip23)"><text fill="#595959" fill-opacity="1" font-family="Calibri,Calibri_MSFontService,sans-serif" font-style="normal" font-variant="normal" font-weight="400" font-stretch="normal" font-size="41" text-anchor="start" direction="ltr" writing-mode="lr-tb" unicode-bidi="normal" text-decoration="none" transform="matrix(1 0 0 1 7846.95 7540)">100%</text></g><g clip-path="url(#clip24)"><text fill="#595959" fill-opacity="1" font-family="Times New Roman,Times New Roman_MSFontService,sans-serif" font-style="normal" font-variant="normal" font-weight="400" font-stretch="normal" font-size="46" text-anchor="start" direction="ltr" writing-mode="lr-tb" unicode-bidi="normal" text-decoration="none" transform="matrix(6.12323e-17 -1 1 6.12323e-17 6477.66 7273)">Latancy (</text></g><g clip-path="url(#clip25)"><text fill="#595959" fill-opacity="1" font-family="Times New Roman,Times New Roman_MSFontService,sans-serif" font-style="normal" font-variant="normal" font-weight="400" font-stretch="normal" font-size="37" text-anchor="start" direction="ltr" writing-mode="lr-tb" unicode-bidi="normal" text-decoration="none" transform="matrix(6.12323e-17 -1 1 6.12323e-17 6477.66 7099)">ms</text></g><g clip-path="url(#clip26)"><text fill="#595959" fill-opacity="1" font-family="Times New Roman,Times New Roman_MSFontService,sans-serif" font-style="normal" font-variant="normal" font-weight="400" font-stretch="normal" font-size="46" text-anchor="start" direction="ltr" writing-mode="lr-tb" unicode-bidi="normal" text-decoration="none" transform="matrix(6.12323e-17 -1 1 6.12323e-17 6477.66 7056)">)</text></g><g clip-path="url(#clip27)"><text fill="#595959" fill-opacity="1" font-family="Times New Roman,Times New Roman_MSFontService,sans-serif" font-style="normal" font-variant="normal" font-weight="400" font-stretch="normal" font-size="46" text-anchor="start" direction="ltr" writing-mode="lr-tb" unicode-bidi="normal" text-decoration="none" transform="matrix(1 0 0 1 7208.72 7606)">Percentile</text></g><g clip-path="url(#clip28)"><path d="M7024.5 7711.5 7112.5 7711.5" stroke="#FFC000" stroke-width="6.875" stroke-linecap="round" stroke-linejoin="round" stroke-miterlimit="10" stroke-opacity="1" fill="none" fill-rule="evenodd"/></g><g clip-path="url(#clip29)"><text fill="#595959" fill-opacity="1" font-family="Calibri,Calibri_MSFontService,sans-serif" font-style="normal" font-variant="normal" font-weight="400" font-stretch="normal" font-size="41" text-anchor="start" direction="ltr" writing-mode="lr-tb" unicode-bidi="normal" text-decoration="none" transform="matrix(1 0 0 1 7122.13 7722)">k8s</text></g><g clip-path="url(#clip30)"><path d="M7214.5 7711.5 7302.5 7711.5" stroke="#70AD47" stroke-width="6.875" stroke-linecap="round" stroke-linejoin="round" stroke-miterlimit="10" stroke-opacity="1" fill="none" fill-rule="evenodd"/></g><g clip-path="url(#clip31)"><text fill="#595959" fill-opacity="1" font-family="Calibri,Calibri_MSFontService,sans-serif" font-style="normal" font-variant="normal" font-weight="400" font-stretch="normal" font-size="41" text-anchor="start" direction="ltr" writing-mode="lr-tb" unicode-bidi="normal" text-decoration="none" transform="matrix(1 0 0 1 7312.07 7722)">LEAD</text></g><rect x="6379.5" y="6788.5" width="1649" height="990" stroke="#D9D9D9" stroke-width="3.4375" stroke-linecap="butt" stroke-linejoin="round" stroke-miterlimit="10" stroke-opacity="1" fill="none"/></g></svg>