<svg width="1838" height="972" xmlns="http://www.w3.org/2000/svg" xmlns:xlink="http://www.w3.org/1999/xlink" xml:space="preserve" overflow="hidden"><defs><clipPath id="clip0"><rect x="3432" y="4523" width="1838" height="972"/></clipPath><clipPath id="clip1"><rect x="3436" y="4528" width="1832" height="962"/></clipPath><clipPath id="clip2"><rect x="3638" y="4578" width="1583" height="612"/></clipPath><clipPath id="clip3"><rect x="3638" y="4578" width="1583" height="612"/></clipPath><clipPath id="clip4"><rect x="3638" y="4578" width="1583" height="609"/></clipPath><clipPath id="clip5"><rect x="3638" y="4578" width="1583" height="609"/></clipPath><clipPath id="clip6"><rect x="3638" y="4578" width="1583" height="609"/></clipPath><clipPath id="clip7"><rect x="3638" y="4578" width="1583" height="609"/></clipPath><clipPath id="clip8"><rect x="3638" y="4578" width="1583" height="609"/></clipPath><clipPath id="clip9"><rect x="3638" y="4578" width="1583" height="609"/></clipPath><clipPath id="clip10"><rect x="3638" y="4578" width="1583" height="609"/></clipPath><clipPath id="clip11"><rect x="3638" y="4578" width="1583" height="609"/></clipPath><clipPath id="clip12"><rect x="3436" y="4528" width="1832" height="962"/></clipPath><clipPath id="clip13"><rect x="3436" y="4528" width="1832" height="962"/></clipPath><clipPath id="clip14"><rect x="3436" y="4528" width="1832" height="962"/></clipPath><clipPath id="clip15"><rect x="3436" y="4528" width="1832" height="962"/></clipPath><clipPath id="clip16"><rect x="3436" y="4528" width="1832" height="962"/></clipPath><clipPath id="clip17"><rect x="3436" y="4528" width="1832" height="962"/></clipPath><clipPath id="clip18"><rect x="3436" y="4528" width="1832" height="962"/></clipPath><clipPath id="clip19"><rect x="3436" y="4528" width="1832" height="962"/></clipPath><clipPath id="clip20"><rect x="3436" y="4528" width="1832" height="962"/></clipPath><clipPath id="clip21"><rect x="3436" y="4528" width="1832" height="962"/></clipPath><clipPath id="clip22"><rect x="3436" y="4528" width="1832" height="962"/></clipPath><clipPath id="clip23"><rect x="3436" y="4528" width="1832" height="962"/></clipPath><clipPath id="clip24"><rect x="3436" y="4528" width="1832" height="962"/></clipPath><clipPath id="clip25"><rect x="3436" y="4528" width="1832" height="962"/></clipPath><clipPath id="clip26"><rect x="3436" y="4528" width="1832" height="962"/></clipPath><clipPath id="clip27"><rect x="3436" y="4528" width="1832" height="962"/></clipPath><clipPath id="clip28"><rect x="3436" y="4528" width="1832" height="962"/></clipPath><clipPath id="clip29"><rect x="3436" y="4528" width="1832" height="962"/></clipPath><clipPath id="clip30"><rect x="3436" y="4528" width="1832" height="962"/></clipPath><clipPath id="clip31"><rect x="3436" y="4528" width="1832" height="962"/></clipPath><clipPath id="clip32"><rect x="3436" y="4528" width="1832" height="962"/></clipPath><clipPath id="clip33"><rect x="3436" y="4528" width="1832" height="962"/></clipPath><clipPath id="clip34"><rect x="3436" y="4528" width="1832" height="962"/></clipPath><clipPath id="clip35"><rect x="3436" y="4528" width="1832" height="962"/></clipPath><clipPath id="clip36"><rect x="3436" y="4528" width="1832" height="962"/></clipPath><clipPath id="clip37"><rect x="3436" y="4528" width="1832" height="962"/></clipPath><clipPath id="clip38"><rect x="3436" y="4528" width="1832" height="962"/></clipPath><clipPath id="clip39"><rect x="3436" y="4528" width="1832" height="962"/></clipPath><clipPath id="clip40"><rect x="3436" y="4528" width="1832" height="962"/></clipPath></defs><g clip-path="url(#clip0)" transform="translate(-3432 -4523)"><rect x="3436" y="4528" width="1832" height="962" fill="#FFFFFF" fill-opacity="1"/><g clip-path="url(#clip1)"><path d="M3638.5 5119.67 5217.5 5119.67M3638.5 5051.67 5217.5 5051.67M3638.5 4984.66 5217.5 4984.66M3638.5 4916.66 5217.5 4916.66M3638.5 4848.66 5217.5 4848.66M3638.5 4781.66 5217.5 4781.66M3638.5 4713.65 5217.5 4713.65M3638.5 4646.65 5217.5 4646.65M3638.5 4578.5 5217.5 4578.5" stroke="#D9D9D9" stroke-width="3.4375" stroke-linecap="butt" stroke-linejoin="round" stroke-miterlimit="10" stroke-opacity="1" fill="none" fill-rule="nonzero"/></g><g clip-path="url(#clip2)"><path d="M3735.12 4753.16 3823.13 4753.16 3823.13 5187 3735.12 5187ZM4130.14 4719.15 4218.14 4719.15 4218.14 5187 4130.14 5187ZM4525.15 4740.16 4613.15 4740.16 4613.15 5187 4525.15 5187ZM4920.16 4645.15 5008.16 4645.15 5008.16 5187 4920.16 5187Z" fill="#FFC000" fill-rule="nonzero" fill-opacity="1"/></g><g clip-path="url(#clip3)"><path d="M3847.13 4817.16 3936.13 4817.16 3936.13 5187 3847.13 5187ZM4242.14 4833.16 4331.14 4833.16 4331.14 5187 4242.14 5187ZM4637.15 4877.16 4726.16 4877.16 4726.16 5187 4637.15 5187ZM5032.17 5017.16 5121.17 5017.16 5121.17 5187 5032.17 5187Z" fill="#70AD47" fill-rule="nonzero" fill-opacity="1"/></g><g clip-path="url(#clip4)"><path d="M3779.62 4753.66 3779.62 4777.5M3779.62 4753.66 3779.62 4729.5M3768.5 4777.5 3789.5 4777.5M3768.5 4729.5 3789.5 4729.5" stroke="#595959" stroke-width="3.4375" stroke-linecap="butt" stroke-linejoin="round" stroke-miterlimit="10" stroke-opacity="1" fill="none" fill-rule="nonzero"/></g><g clip-path="url(#clip5)"><path d="M4174.64 4718.65 4174.64 4742.5M4174.64 4718.65 4174.64 4694.5M4163.5 4742.5 4184.5 4742.5M4163.5 4694.5 4184.5 4694.5" stroke="#595959" stroke-width="3.4375" stroke-linecap="butt" stroke-linejoin="round" stroke-miterlimit="10" stroke-opacity="1" fill="none" fill-rule="nonzero"/></g><g clip-path="url(#clip6)"><path d="M4569.65 4740.66 4569.65 4764.5M4569.65 4740.66 4569.65 4716.5M4558.5 4764.5 4579.5 4764.5M4558.5 4716.5 4579.5 4716.5" stroke="#595959" stroke-width="3.4375" stroke-linecap="butt" stroke-linejoin="round" stroke-miterlimit="10" stroke-opacity="1" fill="none" fill-rule="nonzero"/></g><g clip-path="url(#clip7)"><path d="M4964.66 4645.65 4964.66 4669.5M4964.66 4645.65 4964.66 4621.5M4953.5 4669.5 4974.5 4669.5M4953.5 4621.5 4974.5 4621.5" stroke="#595959" stroke-width="3.4375" stroke-linecap="butt" stroke-linejoin="round" stroke-miterlimit="10" stroke-opacity="1" fill="none" fill-rule="nonzero"/></g><g clip-path="url(#clip8)"><path d="M3891.63 4817.66 3891.63 4862.5M3891.63 4817.66 3891.63 4772.5M3881.5 4862.5 3902.5 4862.5M3881.5 4772.5 3902.5 4772.5" stroke="#595959" stroke-width="3.4375" stroke-linecap="butt" stroke-linejoin="round" stroke-miterlimit="10" stroke-opacity="1" fill="none" fill-rule="nonzero"/></g><g clip-path="url(#clip9)"><path d="M4286.64 4833.66 4286.64 4878.5M4286.64 4833.66 4286.64 4787.5M4276.5 4878.5 4297.5 4878.5M4276.5 4787.5 4297.5 4787.5" stroke="#595959" stroke-width="3.4375" stroke-linecap="butt" stroke-linejoin="round" stroke-miterlimit="10" stroke-opacity="1" fill="none" fill-rule="nonzero"/></g><g clip-path="url(#clip10)"><path d="M4681.65 4877.66 4681.65 4922.5M4681.65 4877.66 4681.65 4831.5M4671.5 4922.5 4692.5 4922.5M4671.5 4831.5 4692.5 4831.5" stroke="#595959" stroke-width="3.4375" stroke-linecap="butt" stroke-linejoin="round" stroke-miterlimit="10" stroke-opacity="1" fill="none" fill-rule="nonzero"/></g><g clip-path="url(#clip11)"><path d="M5076.67 5017.66 5076.67 5062.5M5076.67 5017.66 5076.67 4971.5M5066.5 5062.5 5087.5 5062.5M5066.5 4971.5 5087.5 4971.5" stroke="#595959" stroke-width="3.4375" stroke-linecap="butt" stroke-linejoin="round" stroke-miterlimit="10" stroke-opacity="1" fill="none" fill-rule="nonzero"/></g><g clip-path="url(#clip12)"><path d="M3638.5 5187.5 5217.5 5187.5" stroke="#D9D9D9" stroke-width="3.4375" stroke-linecap="butt" stroke-linejoin="round" stroke-miterlimit="10" stroke-opacity="1" fill="none" fill-rule="evenodd"/></g><g clip-path="url(#clip13)"><text fill="#404040" fill-opacity="1" font-family="Calibri,Calibri_MSFontService,sans-serif" font-style="normal" font-variant="normal" font-weight="400" font-stretch="normal" font-size="41" text-anchor="start" direction="ltr" writing-mode="lr-tb" unicode-bidi="normal" text-decoration="none" transform="matrix(1 0 0 1 3732.28 4721)">32.09</text></g><g clip-path="url(#clip14)"><text fill="#404040" fill-opacity="1" font-family="Calibri,Calibri_MSFontService,sans-serif" font-style="normal" font-variant="normal" font-weight="400" font-stretch="normal" font-size="41" text-anchor="start" direction="ltr" writing-mode="lr-tb" unicode-bidi="normal" text-decoration="none" transform="matrix(1 0 0 1 4127.27 4687)">34.64</text></g><g clip-path="url(#clip15)"><text fill="#404040" fill-opacity="1" font-family="Calibri,Calibri_MSFontService,sans-serif" font-style="normal" font-variant="normal" font-weight="400" font-stretch="normal" font-size="41" text-anchor="start" direction="ltr" writing-mode="lr-tb" unicode-bidi="normal" text-decoration="none" transform="matrix(1 0 0 1 4522.26 4709)">33.03</text></g><g clip-path="url(#clip16)"><text fill="#404040" fill-opacity="1" font-family="Calibri,Calibri_MSFontService,sans-serif" font-style="normal" font-variant="normal" font-weight="400" font-stretch="normal" font-size="41" text-anchor="start" direction="ltr" writing-mode="lr-tb" unicode-bidi="normal" text-decoration="none" transform="matrix(1 0 0 1 4917.25 4613)">40.07</text></g><g clip-path="url(#clip17)"><text fill="#404040" fill-opacity="1" font-family="Calibri,Calibri_MSFontService,sans-serif" font-style="normal" font-variant="normal" font-weight="400" font-stretch="normal" font-size="41" text-anchor="start" direction="ltr" writing-mode="lr-tb" unicode-bidi="normal" text-decoration="none" transform="matrix(1 0 0 1 3844.75 4786)">27.34</text></g><g clip-path="url(#clip18)"><text fill="#404040" fill-opacity="1" font-family="Calibri,Calibri_MSFontService,sans-serif" font-style="normal" font-variant="normal" font-weight="400" font-stretch="normal" font-size="41" text-anchor="start" direction="ltr" writing-mode="lr-tb" unicode-bidi="normal" text-decoration="none" transform="matrix(1 0 0 1 4239.75 4801)">26.17</text></g><g clip-path="url(#clip19)"><text fill="#404040" fill-opacity="1" font-family="Calibri,Calibri_MSFontService,sans-serif" font-style="normal" font-variant="normal" font-weight="400" font-stretch="normal" font-size="41" text-anchor="start" direction="ltr" writing-mode="lr-tb" unicode-bidi="normal" text-decoration="none" transform="matrix(1 0 0 1 4634.74 4845)">22.91</text></g><g clip-path="url(#clip20)"><text fill="#404040" fill-opacity="1" font-family="Calibri,Calibri_MSFontService,sans-serif" font-style="normal" font-variant="normal" font-weight="400" font-stretch="normal" font-size="41" text-anchor="start" direction="ltr" writing-mode="lr-tb" unicode-bidi="normal" text-decoration="none" transform="matrix(1 0 0 1 5029.73 4985)">12.56</text></g><g clip-path="url(#clip21)"><text fill="#595959" fill-opacity="1" font-family="Calibri,Calibri_MSFontService,sans-serif" font-style="normal" font-variant="normal" font-weight="400" font-stretch="normal" font-size="41" text-anchor="start" direction="ltr" writing-mode="lr-tb" unicode-bidi="normal" text-decoration="none" transform="matrix(1 0 0 1 3578.85 5197)">0</text></g><g clip-path="url(#clip22)"><text fill="#595959" fill-opacity="1" font-family="Calibri,Calibri_MSFontService,sans-serif" font-style="normal" font-variant="normal" font-weight="400" font-stretch="normal" font-size="41" text-anchor="start" direction="ltr" writing-mode="lr-tb" unicode-bidi="normal" text-decoration="none" transform="matrix(1 0 0 1 3578.85 5130)">5</text></g><g clip-path="url(#clip23)"><text fill="#595959" fill-opacity="1" font-family="Calibri,Calibri_MSFontService,sans-serif" font-style="normal" font-variant="normal" font-weight="400" font-stretch="normal" font-size="41" text-anchor="start" direction="ltr" writing-mode="lr-tb" unicode-bidi="normal" text-decoration="none" transform="matrix(1 0 0 1 3557.95 5062)">10</text></g><g clip-path="url(#clip24)"><text fill="#595959" fill-opacity="1" font-family="Calibri,Calibri_MSFontService,sans-serif" font-style="normal" font-variant="normal" font-weight="400" font-stretch="normal" font-size="41" text-anchor="start" direction="ltr" writing-mode="lr-tb" unicode-bidi="normal" text-decoration="none" transform="matrix(1 0 0 1 3557.95 4994)">15</text></g><g clip-path="url(#clip25)"><text fill="#595959" fill-opacity="1" font-family="Calibri,Calibri_MSFontService,sans-serif" font-style="normal" font-variant="normal" font-weight="400" font-stretch="normal" font-size="41" text-anchor="start" direction="ltr" writing-mode="lr-tb" unicode-bidi="normal" text-decoration="none" transform="matrix(1 0 0 1 3557.95 4927)">20</text></g><g clip-path="url(#clip26)"><text fill="#595959" fill-opacity="1" font-family="Calibri,Calibri_MSFontService,sans-serif" font-style="normal" font-variant="normal" font-weight="400" font-stretch="normal" font-size="41" text-anchor="start" direction="ltr" writing-mode="lr-tb" unicode-bidi="normal" text-decoration="none" transform="matrix(1 0 0 1 3557.95 4859)">25</text></g><g clip-path="url(#clip27)"><text fill="#595959" fill-opacity="1" font-family="Calibri,Calibri_MSFontService,sans-serif" font-style="normal" font-variant="normal" font-weight="400" font-stretch="normal" font-size="41" text-anchor="start" direction="ltr" writing-mode="lr-tb" unicode-bidi="normal" text-decoration="none" transform="matrix(1 0 0 1 3557.95 4792)">30</text></g><g clip-path="url(#clip28)"><text fill="#595959" fill-opacity="1" font-family="Calibri,Calibri_MSFontService,sans-serif" font-style="normal" font-variant="normal" font-weight="400" font-stretch="normal" font-size="41" text-anchor="start" direction="ltr" writing-mode="lr-tb" unicode-bidi="normal" text-decoration="none" transform="matrix(1 0 0 1 3557.95 4724)">35</text></g><g clip-path="url(#clip29)"><text fill="#595959" fill-opacity="1" font-family="Calibri,Calibri_MSFontService,sans-serif" font-style="normal" font-variant="normal" font-weight="400" font-stretch="normal" font-size="41" text-anchor="start" direction="ltr" writing-mode="lr-tb" unicode-bidi="normal" text-decoration="none" transform="matrix(1 0 0 1 3557.95 4656)">40</text></g><g clip-path="url(#clip30)"><text fill="#595959" fill-opacity="1" font-family="Calibri,Calibri_MSFontService,sans-serif" font-style="normal" font-variant="normal" font-weight="400" font-stretch="normal" font-size="41" text-anchor="start" direction="ltr" writing-mode="lr-tb" unicode-bidi="normal" text-decoration="none" transform="matrix(1 0 0 1 3557.95 4589)">45</text></g><g clip-path="url(#clip31)"><text fill="#595959" fill-opacity="1" font-family="Calibri,Calibri_MSFontService,sans-serif" font-style="normal" font-variant="normal" font-weight="400" font-stretch="normal" font-size="41" text-anchor="start" direction="ltr" writing-mode="lr-tb" unicode-bidi="normal" text-decoration="none" transform="matrix(1 0 0 1 3825.07 5252)">1</text></g><g clip-path="url(#clip32)"><text fill="#595959" fill-opacity="1" font-family="Calibri,Calibri_MSFontService,sans-serif" font-style="normal" font-variant="normal" font-weight="400" font-stretch="normal" font-size="41" text-anchor="start" direction="ltr" writing-mode="lr-tb" unicode-bidi="normal" text-decoration="none" transform="matrix(1 0 0 1 4220.06 5252)">2</text></g><g clip-path="url(#clip33)"><text fill="#595959" fill-opacity="1" font-family="Calibri,Calibri_MSFontService,sans-serif" font-style="normal" font-variant="normal" font-weight="400" font-stretch="normal" font-size="41" text-anchor="start" direction="ltr" writing-mode="lr-tb" unicode-bidi="normal" text-decoration="none" transform="matrix(1 0 0 1 4615.05 5252)">4</text></g><g clip-path="url(#clip34)"><text fill="#595959" fill-opacity="1" font-family="Calibri,Calibri_MSFontService,sans-serif" font-style="normal" font-variant="normal" font-weight="400" font-stretch="normal" font-size="41" text-anchor="start" direction="ltr" writing-mode="lr-tb" unicode-bidi="normal" text-decoration="none" transform="matrix(1 0 0 1 5010.04 5252)">8</text></g><g clip-path="url(#clip35)"><text fill="#595959" fill-opacity="1" font-family="Times New Roman,Times New Roman_MSFontService,sans-serif" font-style="normal" font-variant="normal" font-weight="400" font-stretch="normal" font-size="46" text-anchor="start" direction="ltr" writing-mode="lr-tb" unicode-bidi="normal" text-decoration="none" transform="matrix(6.12323e-17 -1 1 6.12323e-17 3534.44 5167)">Time out requests (percentage)</text></g><g clip-path="url(#clip36)"><text fill="#595959" fill-opacity="1" font-family="Times New Roman,Times New Roman_MSFontService,sans-serif" font-style="normal" font-variant="normal" font-weight="400" font-stretch="normal" font-size="46" text-anchor="start" direction="ltr" writing-mode="lr-tb" unicode-bidi="normal" text-decoration="none" transform="matrix(1 0 0 1 4264.45 5318)">Workloads (hour)</text></g><g clip-path="url(#clip37)"><rect x="4243" y="5413" width="22" height="22" fill="#FFC000" fill-opacity="1"/></g><g clip-path="url(#clip38)"><text fill="#595959" fill-opacity="1" font-family="Calibri,Calibri_MSFontService,sans-serif" font-style="normal" font-variant="normal" font-weight="400" font-stretch="normal" font-size="41" text-anchor="start" direction="ltr" writing-mode="lr-tb" unicode-bidi="normal" text-decoration="none" transform="matrix(1 0 0 1 4274.97 5434)">k8s</text></g><g clip-path="url(#clip39)"><rect x="4359" y="5413" width="23" height="22" fill="#70AD47" fill-opacity="1"/></g><g clip-path="url(#clip40)"><text fill="#595959" fill-opacity="1" font-family="Calibri,Calibri_MSFontService,sans-serif" font-style="normal" font-variant="normal" font-weight="400" font-stretch="normal" font-size="41" text-anchor="start" direction="ltr" writing-mode="lr-tb" unicode-bidi="normal" text-decoration="none" transform="matrix(1 0 0 1 4391.6 5434)">LEAD</text></g><rect x="3436.5" y="4528.5" width="1832" height="962" stroke="#D9D9D9" stroke-width="3.4375" stroke-linecap="butt" stroke-linejoin="round" stroke-miterlimit="10" stroke-opacity="1" fill="none"/></g></svg>